STARTFONT 2.1
COMMENT 
COMMENT Converted from TrueType font "LiberationSerif-Bold.ttf" by "ttf2bdf 2.9".
COMMENT 
FONT -FreeType-Liberation Serif-Bold-R-Normal--15-110-100-100-P-80-ISO10646-1
SIZE 11 100 100
FONTBOUNDINGBOX 20 20 -3 -5
STARTPROPERTIES 20
FOUNDRY "FreeType"
FAMILY_NAME "Liberation Serif"
WEIGHT_NAME "Bold"
SLANT "R"
SETWIDTH_NAME "Normal"
ADD_STYLE_NAME ""
PIXEL_SIZE 15
POINT_SIZE 110
RESOLUTION_X 100
RESOLUTION_Y 100
SPACING "P"
AVERAGE_WIDTH 80
CHARSET_REGISTRY "ISO10646"
CHARSET_ENCODING "1"
FONT_ASCENT 13
FONT_DESCENT 3
COPYRIGHT "Digitized data © 2007 Ascender Corporation. All rights reserved."
_TTF_FONTFILE "LiberationSerif-Bold.ttf"
_TTF_PSNAME "LiberationSerif-Bold"
_GBDFED_INFO "Edited with gbdfed 1.3."
ENDPROPERTIES
CHARS 655
STARTCHAR 0020
ENCODING 32
SWIDTH 196 0
DWIDTH 3 0
BBX 0 0 0 0
BITMAP
ENDCHAR
STARTCHAR 0021
ENCODING 33
SWIDTH 327 0
DWIDTH 5 0
BBX 2 10 0 0
BITMAP
C0
C0
C0
C0
C0
C0
C0
00
C0
C0
ENDCHAR
STARTCHAR 0022
ENCODING 34
SWIDTH 523 0
DWIDTH 8 0
BBX 5 4 0 6
BITMAP
D8
D8
D8
90
ENDCHAR
STARTCHAR 0023
ENCODING 35
SWIDTH 523 0
DWIDTH 8 0
BBX 8 10 0 0
BITMAP
12
12
12
FF
24
24
FF
48
48
48
ENDCHAR
STARTCHAR 0024
ENCODING 36
SWIDTH 523 0
DWIDTH 8 0
BBX 7 12 0 -1
BITMAP
10
7C
D4
D0
F0
7C
1E
16
96
96
FC
10
ENDCHAR
STARTCHAR 0025
ENCODING 37
SWIDTH 981 0
DWIDTH 15 0
BBX 13 10 0 0
BITMAP
7020
D840
D880
D900
7200
0270
04D8
08D8
10D8
2070
ENDCHAR
STARTCHAR 0026
ENCODING 38
SWIDTH 850 0
DWIDTH 13 0
BBX 11 10 0 0
BITMAP
3C00
6600
6600
6400
39E0
5CC0
CE80
C780
C380
7CE0
ENDCHAR
STARTCHAR 0027
ENCODING 39
SWIDTH 261 0
DWIDTH 4 0
BBX 2 4 0 6
BITMAP
C0
C0
C0
80
ENDCHAR
STARTCHAR 0028
ENCODING 40
SWIDTH 327 0
DWIDTH 5 0
BBX 4 13 0 -3
BITMAP
10
20
60
C0
C0
C0
C0
C0
C0
C0
60
20
10
ENDCHAR
STARTCHAR 0029
ENCODING 41
SWIDTH 327 0
DWIDTH 5 0
BBX 4 13 0 -3
BITMAP
80
40
60
30
30
30
30
30
30
30
60
40
80
ENDCHAR
STARTCHAR 002A
ENCODING 42
SWIDTH 523 0
DWIDTH 8 0
BBX 5 5 0 5
BITMAP
20
A8
70
A8
20
ENDCHAR
STARTCHAR 002B
ENCODING 43
SWIDTH 589 0
DWIDTH 9 0
BBX 7 7 0 2
BITMAP
10
10
10
FE
10
10
10
ENDCHAR
STARTCHAR 002C
ENCODING 44
SWIDTH 261 0
DWIDTH 4 0
BBX 2 4 0 -2
BITMAP
C0
C0
40
80
ENDCHAR
STARTCHAR 002D
ENCODING 45
SWIDTH 327 0
DWIDTH 5 0
BBX 3 1 0 3
BITMAP
E0
ENDCHAR
STARTCHAR 002E
ENCODING 46
SWIDTH 261 0
DWIDTH 4 0
BBX 2 2 0 0
BITMAP
C0
C0
ENDCHAR
STARTCHAR 002F
ENCODING 47
SWIDTH 261 0
DWIDTH 4 0
BBX 4 10 0 0
BITMAP
10
10
20
20
20
40
40
40
80
80
ENDCHAR
STARTCHAR 0030
ENCODING 48
SWIDTH 523 0
DWIDTH 8 0
BBX 6 10 0 0
BITMAP
78
CC
CC
CC
CC
CC
CC
CC
CC
78
ENDCHAR
STARTCHAR 0031
ENCODING 49
SWIDTH 523 0
DWIDTH 8 0
BBX 6 10 0 0
BITMAP
30
F0
30
30
30
30
30
30
30
FC
ENDCHAR
STARTCHAR 0032
ENCODING 50
SWIDTH 523 0
DWIDTH 8 0
BBX 6 10 0 0
BITMAP
F8
8C
8C
0C
18
10
20
40
FC
FC
ENDCHAR
STARTCHAR 0033
ENCODING 51
SWIDTH 523 0
DWIDTH 8 0
BBX 6 10 0 0
BITMAP
F8
8C
8C
0C
38
0C
0C
8C
8C
F8
ENDCHAR
STARTCHAR 0034
ENCODING 52
SWIDTH 523 0
DWIDTH 8 0
BBX 7 10 0 0
BITMAP
0C
1C
1C
2C
4C
4C
FE
FE
0C
0C
ENDCHAR
STARTCHAR 0035
ENCODING 53
SWIDTH 523 0
DWIDTH 8 0
BBX 7 10 0 0
BITMAP
7C
7C
40
40
7C
06
06
86
8E
FC
ENDCHAR
STARTCHAR 0036
ENCODING 54
SWIDTH 523 0
DWIDTH 8 0
BBX 6 10 0 0
BITMAP
38
68
C8
C0
F8
CC
CC
CC
CC
78
ENDCHAR
STARTCHAR 0037
ENCODING 55
SWIDTH 523 0
DWIDTH 8 0
BBX 6 10 0 0
BITMAP
FC
FC
88
08
18
10
10
30
20
60
ENDCHAR
STARTCHAR 0038
ENCODING 56
SWIDTH 523 0
DWIDTH 8 0
BBX 6 10 0 0
BITMAP
78
CC
CC
CC
78
CC
CC
CC
CC
78
ENDCHAR
STARTCHAR 0039
ENCODING 57
SWIDTH 523 0
DWIDTH 8 0
BBX 6 10 0 0
BITMAP
78
CC
CC
CC
CC
7C
0C
8C
98
F0
ENDCHAR
STARTCHAR 003A
ENCODING 58
SWIDTH 327 0
DWIDTH 5 0
BBX 2 7 0 0
BITMAP
C0
C0
00
00
00
C0
C0
ENDCHAR
STARTCHAR 003B
ENCODING 59
SWIDTH 327 0
DWIDTH 5 0
BBX 2 9 0 -2
BITMAP
C0
C0
00
00
00
C0
C0
40
80
ENDCHAR
STARTCHAR 003C
ENCODING 60
SWIDTH 589 0
DWIDTH 9 0
BBX 7 7 0 2
BITMAP
02
0C
30
C0
30
0C
02
ENDCHAR
STARTCHAR 003D
ENCODING 61
SWIDTH 589 0
DWIDTH 9 0
BBX 7 4 0 3
BITMAP
FE
00
00
FE
ENDCHAR
STARTCHAR 003E
ENCODING 62
SWIDTH 589 0
DWIDTH 9 0
BBX 7 7 0 2
BITMAP
80
60
18
06
18
60
80
ENDCHAR
STARTCHAR 003F
ENCODING 63
SWIDTH 523 0
DWIDTH 8 0
BBX 6 10 0 0
BITMAP
F8
8C
0C
0C
18
30
20
00
60
60
ENDCHAR
STARTCHAR 0040
ENCODING 64
SWIDTH 916 0
DWIDTH 14 0
BBX 12 13 0 -3
BITMAP
07C0
1820
2010
4790
4D90
8D90
9B10
9B20
9B40
8F80
4000
2040
1F80
ENDCHAR
STARTCHAR 0041
ENCODING 65
SWIDTH 720 0
DWIDTH 11 0
BBX 11 10 0 0
BITMAP
0C00
1600
1600
1600
2300
2300
3F80
4180
40C0
E1E0
ENDCHAR
STARTCHAR 0042
ENCODING 66
SWIDTH 654 0
DWIDTH 10 0
BBX 8 10 0 0
BITMAP
FE
63
63
63
7C
63
61
61
63
FE
ENDCHAR
STARTCHAR 0043
ENCODING 67
SWIDTH 720 0
DWIDTH 11 0
BBX 9 10 0 0
BITMAP
3F80
6080
C080
C000
C000
C000
C000
C080
6080
3F80
ENDCHAR
STARTCHAR 0044
ENCODING 68
SWIDTH 654 0
DWIDTH 10 0
BBX 8 10 0 0
BITMAP
FE
63
61
61
61
61
61
61
63
FE
ENDCHAR
STARTCHAR 0045
ENCODING 69
SWIDTH 589 0
DWIDTH 9 0
BBX 8 10 0 0
BITMAP
FE
62
60
64
7C
64
60
60
61
FF
ENDCHAR
STARTCHAR 0046
ENCODING 70
SWIDTH 523 0
DWIDTH 8 0
BBX 7 10 0 0
BITMAP
FE
62
60
64
7C
64
60
60
60
F8
ENDCHAR
STARTCHAR 0047
ENCODING 71
SWIDTH 720 0
DWIDTH 11 0
BBX 10 10 0 0
BITMAP
3F80
6180
C080
C000
C000
C3C0
C180
C180
6180
1F00
ENDCHAR
STARTCHAR 0048
ENCODING 72
SWIDTH 720 0
DWIDTH 11 0
BBX 10 10 0 0
BITMAP
F3C0
6180
6180
6180
7F80
6180
6180
6180
6180
F3C0
ENDCHAR
STARTCHAR 0049
ENCODING 73
SWIDTH 327 0
DWIDTH 5 0
BBX 4 10 0 0
BITMAP
F0
60
60
60
60
60
60
60
60
F0
ENDCHAR
STARTCHAR 004A
ENCODING 74
SWIDTH 523 0
DWIDTH 8 0
BBX 6 10 0 0
BITMAP
3C
18
18
18
18
18
18
18
98
F0
ENDCHAR
STARTCHAR 004B
ENCODING 75
SWIDTH 785 0
DWIDTH 12 0
BBX 11 10 0 0
BITMAP
F1C0
6100
6200
6400
6C00
7600
6300
6180
60C0
F060
ENDCHAR
STARTCHAR 004C
ENCODING 76
SWIDTH 589 0
DWIDTH 9 0
BBX 8 10 0 0
BITMAP
F8
60
60
60
60
60
60
60
61
FF
ENDCHAR
STARTCHAR 004D
ENCODING 77
SWIDTH 916 0
DWIDTH 14 0
BBX 13 10 0 0
BITMAP
E038
7070
7070
58B0
58B0
4D30
4D30
4630
4630
E478
ENDCHAR
STARTCHAR 004E
ENCODING 78
SWIDTH 720 0
DWIDTH 11 0
BBX 10 10 0 0
BITMAP
E1C0
7080
5880
5C80
4C80
4680
4380
4380
4180
E0C0
ENDCHAR
STARTCHAR 004F
ENCODING 79
SWIDTH 785 0
DWIDTH 12 0
BBX 10 10 0 0
BITMAP
3F00
6180
C0C0
C0C0
C0C0
C0C0
C0C0
C0C0
6180
3F00
ENDCHAR
STARTCHAR 0050
ENCODING 80
SWIDTH 523 0
DWIDTH 8 0
BBX 7 10 0 0
BITMAP
FC
66
66
66
66
7C
60
60
60
F8
ENDCHAR
STARTCHAR 0051
ENCODING 81
SWIDTH 785 0
DWIDTH 12 0
BBX 10 12 0 -2
BITMAP
3F00
6180
C0C0
C0C0
C0C0
C0C0
C0C0
C0C0
6180
3F00
0700
03C0
ENDCHAR
STARTCHAR 0052
ENCODING 82
SWIDTH 720 0
DWIDTH 11 0
BBX 10 10 0 0
BITMAP
FE00
6300
6300
6300
6300
7E00
6600
6600
6300
F1C0
ENDCHAR
STARTCHAR 0053
ENCODING 83
SWIDTH 523 0
DWIDTH 8 0
BBX 6 10 0 0
BITMAP
7C
C4
C4
E0
78
1C
0C
8C
8C
F8
ENDCHAR
STARTCHAR 0054
ENCODING 84
SWIDTH 654 0
DWIDTH 10 0
BBX 10 10 0 0
BITMAP
FFC0
8C40
8C40
0C00
0C00
0C00
0C00
0C00
0C00
3F00
ENDCHAR
STARTCHAR 0055
ENCODING 85
SWIDTH 654 0
DWIDTH 10 0
BBX 9 10 0 0
BITMAP
F380
6100
6100
6100
6100
6100
6100
6100
6100
3E00
ENDCHAR
STARTCHAR 0056
ENCODING 86
SWIDTH 654 0
DWIDTH 10 0
BBX 10 10 0 0
BITMAP
F1C0
6080
3100
3100
3100
1A00
1A00
1A00
0C00
0C00
ENDCHAR
STARTCHAR 0057
ENCODING 87
SWIDTH 916 0
DWIDTH 14 0
BBX 14 10 0 0
BITMAP
F01C
6108
3110
3390
3390
1DA0
1CE0
1CE0
0840
0840
ENDCHAR
STARTCHAR 0058
ENCODING 88
SWIDTH 654 0
DWIDTH 10 0
BBX 10 10 0 0
BITMAP
F1C0
7100
3100
1A00
0C00
0C00
1600
2300
2180
E3C0
ENDCHAR
STARTCHAR 0059
ENCODING 89
SWIDTH 654 0
DWIDTH 10 0
BBX 10 10 0 0
BITMAP
F1C0
6080
3100
3200
1A00
0C00
0C00
0C00
0C00
3F00
ENDCHAR
STARTCHAR 005A
ENCODING 90
SWIDTH 589 0
DWIDTH 9 0
BBX 7 10 0 0
BITMAP
FE
86
8C
18
18
30
30
62
C2
FE
ENDCHAR
STARTCHAR 005B
ENCODING 91
SWIDTH 327 0
DWIDTH 5 0
BBX 3 12 0 -2
BITMAP
E0
C0
C0
C0
C0
C0
C0
C0
C0
C0
C0
E0
ENDCHAR
STARTCHAR 005C
ENCODING 92
SWIDTH 261 0
DWIDTH 4 0
BBX 4 10 0 0
BITMAP
80
80
40
40
40
20
20
20
10
10
ENDCHAR
STARTCHAR 005D
ENCODING 93
SWIDTH 327 0
DWIDTH 5 0
BBX 3 12 0 -2
BITMAP
E0
60
60
60
60
60
60
60
60
60
60
E0
ENDCHAR
STARTCHAR 005E
ENCODING 94
SWIDTH 589 0
DWIDTH 9 0
BBX 7 7 0 3
BITMAP
10
30
28
28
44
44
82
ENDCHAR
STARTCHAR 005F
ENCODING 95
SWIDTH 523 0
DWIDTH 8 0
BBX 8 1 0 -2
BITMAP
FF
ENDCHAR
STARTCHAR 0060
ENCODING 96
SWIDTH 327 0
DWIDTH 5 0
BBX 3 2 0 8
BITMAP
C0
20
ENDCHAR
STARTCHAR 0061
ENCODING 97
SWIDTH 458 0
DWIDTH 7 0
BBX 7 7 0 0
BITMAP
78
4C
0C
7C
CC
CC
7E
ENDCHAR
STARTCHAR 0062
ENCODING 98
SWIDTH 523 0
DWIDTH 8 0
BBX 7 10 0 0
BITMAP
E0
60
60
7C
66
66
66
66
66
7C
ENDCHAR
STARTCHAR 0063
ENCODING 99
SWIDTH 458 0
DWIDTH 7 0
BBX 5 7 0 0
BITMAP
78
C8
C0
C0
C0
C0
78
ENDCHAR
STARTCHAR 0064
ENCODING 100
SWIDTH 523 0
DWIDTH 8 0
BBX 7 10 0 0
BITMAP
1C
0C
0C
7C
CC
CC
CC
CC
CC
7E
ENDCHAR
STARTCHAR 0065
ENCODING 101
SWIDTH 523 0
DWIDTH 8 0
BBX 6 7 0 0
BITMAP
78
CC
CC
FC
C0
C0
7C
ENDCHAR
STARTCHAR 0066
ENCODING 102
SWIDTH 196 0
DWIDTH 3 0
BBX 4 10 0 0
BITMAP
30
60
60
F0
60
60
60
60
60
F0
ENDCHAR
STARTCHAR 0067
ENCODING 103
SWIDTH 523 0
DWIDTH 8 0
BBX 8 10 0 -3
BITMAP
3E
66
66
66
3C
40
FE
7F
C3
7E
ENDCHAR
STARTCHAR 0068
ENCODING 104
SWIDTH 523 0
DWIDTH 8 0
BBX 8 10 0 0
BITMAP
E0
60
60
7C
66
66
66
66
66
F7
ENDCHAR
STARTCHAR 0069
ENCODING 105
SWIDTH 261 0
DWIDTH 4 0
BBX 4 10 0 0
BITMAP
60
60
00
E0
60
60
60
60
60
F0
ENDCHAR
STARTCHAR 006A
ENCODING 106
SWIDTH 261 0
DWIDTH 4 0
BBX 4 13 -1 -3
BITMAP
30
30
00
70
30
30
30
30
30
30
30
B0
E0
ENDCHAR
STARTCHAR 006B
ENCODING 107
SWIDTH 589 0
DWIDTH 9 0
BBX 9 10 0 0
BITMAP
E000
6000
6000
6700
6400
6800
7C00
6E00
6300
F380
ENDCHAR
STARTCHAR 006C
ENCODING 108
SWIDTH 261 0
DWIDTH 4 0
BBX 4 10 0 0
BITMAP
E0
60
60
60
60
60
60
60
60
F0
ENDCHAR
STARTCHAR 006D
ENCODING 109
SWIDTH 785 0
DWIDTH 12 0
BBX 12 7 0 0
BITMAP
FDC0
6660
6660
6660
6660
6660
F770
ENDCHAR
STARTCHAR 006E
ENCODING 110
SWIDTH 523 0
DWIDTH 8 0
BBX 8 7 0 0
BITMAP
FC
66
66
66
66
66
F7
ENDCHAR
STARTCHAR 006F
ENCODING 111
SWIDTH 523 0
DWIDTH 8 0
BBX 6 7 0 0
BITMAP
78
CC
CC
CC
CC
CC
78
ENDCHAR
STARTCHAR 0070
ENCODING 112
SWIDTH 523 0
DWIDTH 8 0
BBX 7 10 0 -3
BITMAP
FC
66
66
66
66
66
7C
60
60
F0
ENDCHAR
STARTCHAR 0071
ENCODING 113
SWIDTH 523 0
DWIDTH 8 0
BBX 7 10 0 -3
BITMAP
7C
CC
CC
CC
CC
CC
7C
0C
0C
1E
ENDCHAR
STARTCHAR 0072
ENCODING 114
SWIDTH 392 0
DWIDTH 6 0
BBX 6 7 0 0
BITMAP
EC
7C
64
60
60
60
F0
ENDCHAR
STARTCHAR 0073
ENCODING 115
SWIDTH 458 0
DWIDTH 7 0
BBX 5 7 0 0
BITMAP
78
C8
E0
F0
38
98
F0
ENDCHAR
STARTCHAR 0074
ENCODING 116
SWIDTH 327 0
DWIDTH 5 0
BBX 5 9 0 0
BITMAP
20
60
F0
60
60
60
60
60
38
ENDCHAR
STARTCHAR 0075
ENCODING 117
SWIDTH 523 0
DWIDTH 8 0
BBX 8 7 0 0
BITMAP
EE
66
66
66
66
66
3F
ENDCHAR
STARTCHAR 0076
ENCODING 118
SWIDTH 523 0
DWIDTH 8 0
BBX 8 7 0 0
BITMAP
F7
62
34
34
18
18
18
ENDCHAR
STARTCHAR 0077
ENCODING 119
SWIDTH 654 0
DWIDTH 10 0
BBX 10 7 0 0
BITMAP
F1C0
6480
6680
6E80
3700
3300
3300
ENDCHAR
STARTCHAR 0078
ENCODING 120
SWIDTH 523 0
DWIDTH 8 0
BBX 8 7 0 0
BITMAP
F7
62
34
18
2C
46
EF
ENDCHAR
STARTCHAR 0079
ENCODING 121
SWIDTH 458 0
DWIDTH 7 0
BBX 7 10 0 -3
BITMAP
EE
C4
68
68
78
30
30
20
A0
C0
ENDCHAR
STARTCHAR 007A
ENCODING 122
SWIDTH 392 0
DWIDTH 6 0
BBX 6 7 0 0
BITMAP
FC
98
18
30
64
64
FC
ENDCHAR
STARTCHAR 007B
ENCODING 123
SWIDTH 392 0
DWIDTH 6 0
BBX 5 12 0 -2
BITMAP
18
30
30
30
30
E0
30
30
30
30
30
18
ENDCHAR
STARTCHAR 007C
ENCODING 124
SWIDTH 196 0
DWIDTH 3 0
BBX 1 13 0 -3
BITMAP
80
80
80
80
80
80
80
80
80
80
80
80
80
ENDCHAR
STARTCHAR 007D
ENCODING 125
SWIDTH 392 0
DWIDTH 6 0
BBX 5 12 0 -2
BITMAP
C0
60
60
60
60
38
60
60
60
60
60
C0
ENDCHAR
STARTCHAR 007E
ENCODING 126
SWIDTH 523 0
DWIDTH 8 0
BBX 7 3 0 3
BITMAP
62
92
8C
ENDCHAR
STARTCHAR 00A0
ENCODING 160
SWIDTH 196 0
DWIDTH 3 0
BBX 0 0 0 0
BITMAP
ENDCHAR
STARTCHAR 00A1
ENCODING 161
SWIDTH 261 0
DWIDTH 4 0
BBX 2 10 1 -3
BITMAP
C0
C0
00
C0
C0
C0
C0
C0
C0
C0
ENDCHAR
STARTCHAR 00A2
ENCODING 162
SWIDTH 523 0
DWIDTH 8 0
BBX 6 10 1 0
BITMAP
20
7C
E4
E0
E0
E0
E0
E0
7C
20
ENDCHAR
STARTCHAR 00A3
ENCODING 163
SWIDTH 523 0
DWIDTH 8 0
BBX 6 10 1 0
BITMAP
7C
C4
C4
60
F8
20
20
20
7C
FC
ENDCHAR
STARTCHAR 00A4
ENCODING 164
SWIDTH 523 0
DWIDTH 8 0
BBX 6 6 1 1
BITMAP
58
24
40
40
24
58
ENDCHAR
STARTCHAR 00A5
ENCODING 165
SWIDTH 523 0
DWIDTH 8 0
BBX 8 10 0 0
BITMAP
F7
62
34
34
18
7E
18
7E
18
3C
ENDCHAR
STARTCHAR 00A6
ENCODING 166
SWIDTH 196 0
DWIDTH 3 0
BBX 1 13 1 -3
BITMAP
80
80
80
80
00
00
00
00
00
80
80
80
80
ENDCHAR
STARTCHAR 00A7
ENCODING 167
SWIDTH 523 0
DWIDTH 8 0
BBX 6 12 1 -2
BITMAP
7C
C4
C0
70
78
CC
CC
78
38
0C
8C
F8
ENDCHAR
STARTCHAR 00A8
ENCODING 168
SWIDTH 327 0
DWIDTH 5 0
BBX 5 2 0 8
BITMAP
D8
D8
ENDCHAR
STARTCHAR 00A9
ENCODING 169
SWIDTH 720 0
DWIDTH 11 0
BBX 10 10 0 0
BITMAP
1E00
6180
5E80
A240
A040
A040
A240
5E80
6180
1E00
ENDCHAR
STARTCHAR 00AA
ENCODING 170
SWIDTH 327 0
DWIDTH 5 0
BBX 4 5 0 5
BITMAP
E0
10
70
90
F0
ENDCHAR
STARTCHAR 00AB
ENCODING 171
SWIDTH 523 0
DWIDTH 8 0
BBX 6 6 1 0
BITMAP
24
6C
D8
D8
48
24
ENDCHAR
STARTCHAR 00AC
ENCODING 172
SWIDTH 589 0
DWIDTH 9 0
BBX 7 4 1 2
BITMAP
FE
02
02
02
ENDCHAR
STARTCHAR 00AD
ENCODING 173
SWIDTH 327 0
DWIDTH 5 0
BBX 3 1 1 3
BITMAP
E0
ENDCHAR
STARTCHAR 00AE
ENCODING 174
SWIDTH 720 0
DWIDTH 11 0
BBX 10 10 0 0
BITMAP
1E00
6180
5C80
8A40
8A40
8C40
8A40
5D80
6180
1E00
ENDCHAR
STARTCHAR 00AF
ENCODING 175
SWIDTH 523 0
DWIDTH 8 0
BBX 8 1 0 10
BITMAP
FF
ENDCHAR
STARTCHAR 00B0
ENCODING 176
SWIDTH 392 0
DWIDTH 6 0
BBX 5 5 0 5
BITMAP
70
88
88
88
70
ENDCHAR
STARTCHAR 00B1
ENCODING 177
SWIDTH 523 0
DWIDTH 8 0
BBX 7 9 0 0
BITMAP
10
10
10
FE
10
10
10
00
FE
ENDCHAR
STARTCHAR 00B2
ENCODING 178
SWIDTH 327 0
DWIDTH 5 0
BBX 4 6 0 4
BITMAP
E0
90
10
20
40
F0
ENDCHAR
STARTCHAR 00B3
ENCODING 179
SWIDTH 327 0
DWIDTH 5 0
BBX 4 6 0 4
BITMAP
E0
10
60
10
90
E0
ENDCHAR
STARTCHAR 00B4
ENCODING 180
SWIDTH 327 0
DWIDTH 5 0
BBX 3 2 1 8
BITMAP
60
80
ENDCHAR
STARTCHAR 00B5
ENCODING 181
SWIDTH 589 0
DWIDTH 9 0
BBX 8 10 0 -3
BITMAP
EE
66
66
66
66
66
7F
60
60
60
ENDCHAR
STARTCHAR 00B6
ENCODING 182
SWIDTH 523 0
DWIDTH 8 0
BBX 7 12 1 -2
BITMAP
7E
F4
F4
F4
F4
74
14
14
14
14
14
14
ENDCHAR
STARTCHAR 00B7
ENCODING 183
SWIDTH 196 0
DWIDTH 3 0
BBX 2 2 0 4
BITMAP
C0
C0
ENDCHAR
STARTCHAR 00B8
ENCODING 184
SWIDTH 327 0
DWIDTH 5 0
BBX 3 3 1 -3
BITMAP
40
20
C0
ENDCHAR
STARTCHAR 00B9
ENCODING 185
SWIDTH 327 0
DWIDTH 5 0
BBX 3 6 1 4
BITMAP
60
20
20
20
20
60
ENDCHAR
STARTCHAR 00BA
ENCODING 186
SWIDTH 327 0
DWIDTH 5 0
BBX 4 5 0 5
BITMAP
60
90
90
90
60
ENDCHAR
STARTCHAR 00BB
ENCODING 187
SWIDTH 523 0
DWIDTH 8 0
BBX 6 6 1 0
BITMAP
90
48
6C
6C
D8
90
ENDCHAR
STARTCHAR 00BC
ENCODING 188
SWIDTH 720 0
DWIDTH 11 0
BBX 10 10 1 0
BITMAP
6040
2080
2100
2100
2240
74C0
0940
0940
11C0
2040
ENDCHAR
STARTCHAR 00BD
ENCODING 189
SWIDTH 720 0
DWIDTH 11 0
BBX 10 10 1 0
BITMAP
6040
2080
2100
2100
23C0
7500
0800
0840
1080
21C0
ENDCHAR
STARTCHAR 00BE
ENCODING 190
SWIDTH 720 0
DWIDTH 11 0
BBX 11 10 0 0
BITMAP
E040
1080
6100
1100
9240
E4C0
0940
0940
11E0
2040
ENDCHAR
STARTCHAR 00BF
ENCODING 191
SWIDTH 523 0
DWIDTH 8 0
BBX 6 10 1 -3
BITMAP
18
18
00
10
30
60
C0
C0
C4
7C
ENDCHAR
STARTCHAR 00C0
ENCODING 192
SWIDTH 720 0
DWIDTH 11 0
BBX 11 13 0 0
BITMAP
0C00
0200
0000
0C00
1600
1600
1600
2300
2300
3F80
4180
40C0
E1E0
ENDCHAR
STARTCHAR 00C1
ENCODING 193
SWIDTH 720 0
DWIDTH 11 0
BBX 11 13 0 0
BITMAP
0300
0400
0000
0C00
1600
1600
1600
2300
2300
3F80
4180
40C0
E1E0
ENDCHAR
STARTCHAR 00C2
ENCODING 194
SWIDTH 720 0
DWIDTH 11 0
BBX 11 14 0 0
BITMAP
0400
0E00
1100
0000
0C00
1600
1600
1600
2300
2300
3F80
4180
40C0
E1E0
ENDCHAR
STARTCHAR 00C3
ENCODING 195
SWIDTH 720 0
DWIDTH 11 0
BBX 11 13 0 0
BITMAP
0D00
1600
0000
0C00
1600
1600
1600
2300
2300
3F80
4180
40C0
E1E0
ENDCHAR
STARTCHAR 00C4
ENCODING 196
SWIDTH 720 0
DWIDTH 11 0
BBX 11 13 0 0
BITMAP
1B00
1B00
0000
0C00
1600
1600
1600
2300
2300
3F80
4180
40C0
E1E0
ENDCHAR
STARTCHAR 00C5
ENCODING 197
SWIDTH 720 0
DWIDTH 11 0
BBX 11 12 0 0
BITMAP
0400
0A00
0C00
1600
1600
1600
2300
2300
3F80
4180
40C0
E1E0
ENDCHAR
STARTCHAR 00C6
ENCODING 198
SWIDTH 981 0
DWIDTH 15 0
BBX 14 10 0 0
BITMAP
07F8
0388
0580
0990
09F0
1190
1F80
2184
4184
E3FC
ENDCHAR
STARTCHAR 00C7
ENCODING 199
SWIDTH 720 0
DWIDTH 11 0
BBX 9 13 1 -3
BITMAP
3F80
6080
C080
C000
C000
C000
C000
C080
6080
3F80
0400
0200
0C00
ENDCHAR
STARTCHAR 00C8
ENCODING 200
SWIDTH 654 0
DWIDTH 10 0
BBX 8 13 1 0
BITMAP
0C
02
00
7F
31
30
32
3E
32
30
30
30
7F
ENDCHAR
STARTCHAR 00C9
ENCODING 201
SWIDTH 654 0
DWIDTH 10 0
BBX 8 13 1 0
BITMAP
06
08
00
7F
31
30
32
3E
32
30
30
30
7F
ENDCHAR
STARTCHAR 00CA
ENCODING 202
SWIDTH 654 0
DWIDTH 10 0
BBX 8 14 1 0
BITMAP
04
0E
11
00
7F
31
30
32
3E
32
30
30
30
7F
ENDCHAR
STARTCHAR 00CB
ENCODING 203
SWIDTH 654 0
DWIDTH 10 0
BBX 8 13 1 0
BITMAP
1B
1B
00
7F
31
30
32
3E
32
30
30
30
7F
ENDCHAR
STARTCHAR 00CC
ENCODING 204
SWIDTH 392 0
DWIDTH 6 0
BBX 4 13 1 0
BITMAP
30
00
00
70
30
30
30
30
30
30
30
30
70
ENDCHAR
STARTCHAR 00CD
ENCODING 205
SWIDTH 392 0
DWIDTH 6 0
BBX 4 13 1 0
BITMAP
10
20
00
70
30
30
30
30
30
30
30
30
70
ENDCHAR
STARTCHAR 00CE
ENCODING 206
SWIDTH 392 0
DWIDTH 6 0
BBX 5 13 1 0
BITMAP
38
68
00
78
30
30
30
30
30
30
30
30
78
ENDCHAR
STARTCHAR 00CF
ENCODING 207
SWIDTH 392 0
DWIDTH 6 0
BBX 5 13 1 0
BITMAP
68
68
00
78
30
30
30
30
30
30
30
30
78
ENDCHAR
STARTCHAR 00D0
ENCODING 208
SWIDTH 720 0
DWIDTH 11 0
BBX 8 10 2 -1
BITMAP
FE
63
61
61
F9
61
61
61
63
FE
ENDCHAR
STARTCHAR 00D1
ENCODING 209
SWIDTH 720 0
DWIDTH 11 0
BBX 10 13 1 0
BITMAP
0680
0B00
0000
70C0
3840
2C40
2E40
2640
2340
21C0
21C0
20C0
7040
ENDCHAR
STARTCHAR 00D2
ENCODING 210
SWIDTH 785 0
DWIDTH 12 0
BBX 10 13 1 0
BITMAP
1800
0400
0000
3F00
6180
C0C0
C0C0
C0C0
C0C0
C0C0
C0C0
6180
3F00
ENDCHAR
STARTCHAR 00D3
ENCODING 211
SWIDTH 785 0
DWIDTH 12 0
BBX 10 13 1 0
BITMAP
0300
0400
0000
3F00
6180
C0C0
C0C0
C0C0
C0C0
C0C0
C0C0
6180
3F00
ENDCHAR
STARTCHAR 00D4
ENCODING 212
SWIDTH 785 0
DWIDTH 12 0
BBX 10 14 1 0
BITMAP
0400
0E00
1100
0000
3F00
6180
C0C0
C0C0
C0C0
C0C0
C0C0
C0C0
6180
3F00
ENDCHAR
STARTCHAR 00D5
ENCODING 213
SWIDTH 785 0
DWIDTH 12 0
BBX 10 13 1 0
BITMAP
0D00
1600
0000
3F00
6180
C0C0
C0C0
C0C0
C0C0
C0C0
C0C0
6180
3F00
ENDCHAR
STARTCHAR 00D6
ENCODING 214
SWIDTH 785 0
DWIDTH 12 0
BBX 10 13 1 0
BITMAP
1B00
1B00
0000
3F00
6180
C0C0
C0C0
C0C0
C0C0
C0C0
C0C0
6180
3F00
ENDCHAR
STARTCHAR 00D7
ENCODING 215
SWIDTH 589 0
DWIDTH 9 0
BBX 5 5 2 2
BITMAP
40
28
10
28
40
ENDCHAR
STARTCHAR 00D8
ENCODING 216
SWIDTH 785 0
DWIDTH 12 0
BBX 10 12 1 -1
BITMAP
0040
3F80
6180
C1C0
C2C0
C4C0
C8C0
D0C0
E0C0
6180
BF00
8000
ENDCHAR
STARTCHAR 00D9
ENCODING 217
SWIDTH 720 0
DWIDTH 11 0
BBX 8 13 2 0
BITMAP
18
04
00
F3
61
61
61
61
61
61
61
61
3E
ENDCHAR
STARTCHAR 00DA
ENCODING 218
SWIDTH 720 0
DWIDTH 11 0
BBX 8 13 2 0
BITMAP
03
04
00
F3
61
61
61
61
61
61
61
61
3E
ENDCHAR
STARTCHAR 00DB
ENCODING 219
SWIDTH 720 0
DWIDTH 11 0
BBX 8 14 2 0
BITMAP
08
1C
22
00
F3
61
61
61
61
61
61
61
61
3E
ENDCHAR
STARTCHAR 00DC
ENCODING 220
SWIDTH 720 0
DWIDTH 11 0
BBX 8 13 2 0
BITMAP
1B
1B
00
F3
61
61
61
61
61
61
61
61
3E
ENDCHAR
STARTCHAR 00DD
ENCODING 221
SWIDTH 654 0
DWIDTH 10 0
BBX 10 13 0 0
BITMAP
0300
0400
0000
F1C0
6080
3100
3200
1A00
0C00
0C00
0C00
0C00
3F00
ENDCHAR
STARTCHAR 00DE
ENCODING 222
SWIDTH 589 0
DWIDTH 9 0
BBX 7 10 1 0
BITMAP
78
30
3E
32
32
32
32
3E
30
78
ENDCHAR
STARTCHAR 00DF
ENCODING 223
SWIDTH 523 0
DWIDTH 8 0
BBX 8 10 0 0
BITMAP
3C
66
66
66
6C
6C
66
63
6B
EE
ENDCHAR
STARTCHAR 00E0
ENCODING 224
SWIDTH 458 0
DWIDTH 7 0
BBX 7 10 0 0
BITMAP
30
08
00
78
4C
0C
7C
CC
CC
7E
ENDCHAR
STARTCHAR 00E1
ENCODING 225
SWIDTH 458 0
DWIDTH 7 0
BBX 7 10 0 0
BITMAP
0C
10
00
78
4C
0C
7C
CC
CC
7E
ENDCHAR
STARTCHAR 00E2
ENCODING 226
SWIDTH 458 0
DWIDTH 7 0
BBX 7 10 0 0
BITMAP
38
64
00
78
4C
0C
7C
CC
CC
7E
ENDCHAR
STARTCHAR 00E3
ENCODING 227
SWIDTH 458 0
DWIDTH 7 0
BBX 7 10 0 0
BITMAP
34
58
00
78
4C
0C
7C
CC
CC
7E
ENDCHAR
STARTCHAR 00E4
ENCODING 228
SWIDTH 458 0
DWIDTH 7 0
BBX 7 10 0 0
BITMAP
6C
6C
00
78
4C
0C
7C
CC
CC
7E
ENDCHAR
STARTCHAR 00E5
ENCODING 229
SWIDTH 458 0
DWIDTH 7 0
BBX 7 11 0 0
BITMAP
10
28
10
00
78
4C
0C
7C
CC
CC
7E
ENDCHAR
STARTCHAR 00E6
ENCODING 230
SWIDTH 720 0
DWIDTH 11 0
BBX 10 7 0 0
BITMAP
7F80
4CC0
0CC0
7FC0
CC00
CC00
F7C0
ENDCHAR
STARTCHAR 00E7
ENCODING 231
SWIDTH 458 0
DWIDTH 7 0
BBX 5 10 1 -4
BITMAP
78
C8
C0
C0
C0
C0
78
10
08
38
ENDCHAR
STARTCHAR 00E8
ENCODING 232
SWIDTH 523 0
DWIDTH 8 0
BBX 6 10 1 0
BITMAP
30
08
00
78
CC
CC
FC
C0
C0
7C
ENDCHAR
STARTCHAR 00E9
ENCODING 233
SWIDTH 523 0
DWIDTH 8 0
BBX 6 10 1 0
BITMAP
0C
10
00
78
CC
CC
FC
C0
C0
7C
ENDCHAR
STARTCHAR 00EA
ENCODING 234
SWIDTH 523 0
DWIDTH 8 0
BBX 6 10 1 0
BITMAP
38
64
00
78
CC
CC
FC
C0
C0
7C
ENDCHAR
STARTCHAR 00EB
ENCODING 235
SWIDTH 523 0
DWIDTH 8 0
BBX 6 10 1 0
BITMAP
6C
6C
00
78
CC
CC
FC
C0
C0
7C
ENDCHAR
STARTCHAR 00EC
ENCODING 236
SWIDTH 261 0
DWIDTH 4 0
BBX 4 10 0 0
BITMAP
C0
20
00
E0
60
60
60
60
60
F0
ENDCHAR
STARTCHAR 00ED
ENCODING 237
SWIDTH 261 0
DWIDTH 4 0
BBX 4 10 0 0
BITMAP
30
40
00
E0
60
60
60
60
60
F0
ENDCHAR
STARTCHAR 00EE
ENCODING 238
SWIDTH 261 0
DWIDTH 4 0
BBX 5 10 0 0
BITMAP
70
D8
00
E0
60
60
60
60
60
F0
ENDCHAR
STARTCHAR 00EF
ENCODING 239
SWIDTH 261 0
DWIDTH 4 0
BBX 5 10 0 0
BITMAP
D8
D8
00
E0
60
60
60
60
60
F0
ENDCHAR
STARTCHAR 00F0
ENCODING 240
SWIDTH 523 0
DWIDTH 8 0
BBX 6 10 1 0
BITMAP
48
30
58
18
7C
CC
CC
CC
CC
78
ENDCHAR
STARTCHAR 00F1
ENCODING 241
SWIDTH 523 0
DWIDTH 8 0
BBX 8 10 0 0
BITMAP
1A
2C
00
FC
66
66
66
66
66
F7
ENDCHAR
STARTCHAR 00F2
ENCODING 242
SWIDTH 523 0
DWIDTH 8 0
BBX 6 10 1 0
BITMAP
60
10
00
78
CC
CC
CC
CC
CC
78
ENDCHAR
STARTCHAR 00F3
ENCODING 243
SWIDTH 523 0
DWIDTH 8 0
BBX 6 10 1 0
BITMAP
18
20
00
78
CC
CC
CC
CC
CC
78
ENDCHAR
STARTCHAR 00F4
ENCODING 244
SWIDTH 523 0
DWIDTH 8 0
BBX 6 10 1 0
BITMAP
38
6C
00
78
CC
CC
CC
CC
CC
78
ENDCHAR
STARTCHAR 00F5
ENCODING 245
SWIDTH 523 0
DWIDTH 8 0
BBX 6 10 1 0
BITMAP
34
58
00
78
CC
CC
CC
CC
CC
78
ENDCHAR
STARTCHAR 00F6
ENCODING 246
SWIDTH 523 0
DWIDTH 8 0
BBX 6 10 1 0
BITMAP
6C
6C
00
78
CC
CC
CC
CC
CC
78
ENDCHAR
STARTCHAR 00F7
ENCODING 247
SWIDTH 523 0
DWIDTH 8 0
BBX 6 7 1 2
BITMAP
30
30
00
FC
00
30
30
ENDCHAR
STARTCHAR 00F8
ENCODING 248
SWIDTH 523 0
DWIDTH 8 0
BBX 5 8 2 -1
BITMAP
78
C8
D8
E8
C8
C8
78
80
ENDCHAR
STARTCHAR 00F9
ENCODING 249
SWIDTH 523 0
DWIDTH 8 0
BBX 8 10 0 0
BITMAP
30
08
00
EE
66
66
66
66
66
3F
ENDCHAR
STARTCHAR 00FA
ENCODING 250
SWIDTH 523 0
DWIDTH 8 0
BBX 8 10 0 0
BITMAP
0C
10
00
EE
66
66
66
66
66
3F
ENDCHAR
STARTCHAR 00FB
ENCODING 251
SWIDTH 523 0
DWIDTH 8 0
BBX 8 11 0 0
BITMAP
10
38
44
00
EE
66
66
66
66
66
3F
ENDCHAR
STARTCHAR 00FC
ENCODING 252
SWIDTH 523 0
DWIDTH 8 0
BBX 8 10 0 0
BITMAP
36
36
00
EE
66
66
66
66
66
3F
ENDCHAR
STARTCHAR 00FD
ENCODING 253
SWIDTH 458 0
DWIDTH 7 0
BBX 7 13 0 -3
BITMAP
06
08
00
76
62
34
34
3C
18
18
10
50
60
ENDCHAR
STARTCHAR 00FE
ENCODING 254
SWIDTH 523 0
DWIDTH 8 0
BBX 7 13 0 -3
BITMAP
E0
60
60
7C
66
66
66
66
66
7C
60
60
F0
ENDCHAR
STARTCHAR 00FF
ENCODING 255
SWIDTH 458 0
DWIDTH 7 0
BBX 7 13 0 -3
BITMAP
36
36
00
76
62
34
34
3C
18
18
10
50
60
ENDCHAR
STARTCHAR 0100
ENCODING 256
SWIDTH 720 0
DWIDTH 11 0
BBX 11 12 0 0
BITMAP
1F00
0000
0C00
1600
1600
1600
2300
2300
3F80
4180
40C0
E1E0
ENDCHAR
STARTCHAR 0101
ENCODING 257
SWIDTH 458 0
DWIDTH 7 0
BBX 7 9 0 0
BITMAP
7C
00
78
4C
0C
7C
CC
CC
7E
ENDCHAR
STARTCHAR 0102
ENCODING 258
SWIDTH 720 0
DWIDTH 11 0
BBX 11 13 0 0
BITMAP
0900
0600
0000
0C00
1600
1600
1600
2300
2300
3F80
4180
40C0
E1E0
ENDCHAR
STARTCHAR 0103
ENCODING 259
SWIDTH 458 0
DWIDTH 7 0
BBX 7 10 0 0
BITMAP
48
30
00
78
4C
0C
7C
CC
CC
7E
ENDCHAR
STARTCHAR 0104
ENCODING 260
SWIDTH 720 0
DWIDTH 11 0
BBX 11 13 0 -3
BITMAP
0C00
1600
1600
1600
2300
2300
3F80
4180
40C0
E1E0
0080
0080
0060
ENDCHAR
STARTCHAR 0105
ENCODING 261
SWIDTH 458 0
DWIDTH 7 0
BBX 7 10 0 -3
BITMAP
78
4C
0C
7C
CC
CC
7E
08
08
06
ENDCHAR
STARTCHAR 0106
ENCODING 262
SWIDTH 720 0
DWIDTH 11 0
BBX 9 13 1 0
BITMAP
0300
0400
0000
3F80
6080
C080
C000
C000
C000
C000
C080
6080
3F80
ENDCHAR
STARTCHAR 0107
ENCODING 263
SWIDTH 458 0
DWIDTH 7 0
BBX 5 10 1 0
BITMAP
18
20
00
78
C8
C0
C0
C0
C0
78
ENDCHAR
STARTCHAR 0108
ENCODING 264
SWIDTH 720 0
DWIDTH 11 0
BBX 9 14 1 0
BITMAP
0400
0E00
1100
0000
3F80
6080
C080
C000
C000
C000
C000
C080
6080
3F80
ENDCHAR
STARTCHAR 0109
ENCODING 265
SWIDTH 458 0
DWIDTH 7 0
BBX 5 11 1 0
BITMAP
20
70
88
00
78
C8
C0
C0
C0
C0
78
ENDCHAR
STARTCHAR 010A
ENCODING 266
SWIDTH 720 0
DWIDTH 11 0
BBX 9 13 1 0
BITMAP
0600
0600
0000
3F80
6080
C080
C000
C000
C000
C000
C080
6080
3F80
ENDCHAR
STARTCHAR 010B
ENCODING 267
SWIDTH 458 0
DWIDTH 7 0
BBX 5 10 1 0
BITMAP
30
30
00
78
C8
C0
C0
C0
C0
78
ENDCHAR
STARTCHAR 010C
ENCODING 268
SWIDTH 720 0
DWIDTH 11 0
BBX 9 13 1 0
BITMAP
1B00
0E00
0000
3F80
6080
C080
C000
C000
C000
C000
C080
6080
3F80
ENDCHAR
STARTCHAR 010D
ENCODING 269
SWIDTH 458 0
DWIDTH 7 0
BBX 6 10 1 0
BITMAP
6C
38
00
78
C8
C0
C0
C0
C0
78
ENDCHAR
STARTCHAR 010E
ENCODING 270
SWIDTH 720 0
DWIDTH 11 0
BBX 8 13 2 -1
BITMAP
36
1C
00
FE
63
61
61
61
61
61
61
63
FE
ENDCHAR
STARTCHAR 010F
ENCODING 271
SWIDTH 720 0
DWIDTH 11 0
BBX 10 10 1 0
BITMAP
1CC0
0CC0
0C40
7D80
CC00
CC00
CC00
CC00
CC00
7E00
ENDCHAR
STARTCHAR 0110
ENCODING 272
SWIDTH 720 0
DWIDTH 11 0
BBX 8 10 2 -1
BITMAP
FE
63
61
61
F9
61
61
61
63
FE
ENDCHAR
STARTCHAR 0111
ENCODING 273
SWIDTH 523 0
DWIDTH 8 0
BBX 7 10 1 0
BITMAP
1C
3E
0C
7C
CC
CC
CC
CC
CC
7E
ENDCHAR
STARTCHAR 0112
ENCODING 274
SWIDTH 654 0
DWIDTH 10 0
BBX 8 12 1 0
BITMAP
1F
00
7F
31
30
32
3E
32
30
30
30
7F
ENDCHAR
STARTCHAR 0113
ENCODING 275
SWIDTH 523 0
DWIDTH 8 0
BBX 6 9 1 0
BITMAP
7C
00
78
CC
CC
FC
C0
C0
7C
ENDCHAR
STARTCHAR 0114
ENCODING 276
SWIDTH 654 0
DWIDTH 10 0
BBX 8 13 1 0
BITMAP
12
0C
00
7F
31
30
32
3E
32
30
30
30
7F
ENDCHAR
STARTCHAR 0115
ENCODING 277
SWIDTH 523 0
DWIDTH 8 0
BBX 6 10 1 0
BITMAP
48
30
00
78
CC
CC
FC
C0
C0
7C
ENDCHAR
STARTCHAR 0116
ENCODING 278
SWIDTH 654 0
DWIDTH 10 0
BBX 8 13 1 0
BITMAP
0C
0C
00
7F
31
30
32
3E
32
30
30
30
7F
ENDCHAR
STARTCHAR 0117
ENCODING 279
SWIDTH 523 0
DWIDTH 8 0
BBX 6 10 1 0
BITMAP
30
30
00
78
CC
CC
FC
C0
C0
7C
ENDCHAR
STARTCHAR 0118
ENCODING 280
SWIDTH 654 0
DWIDTH 10 0
BBX 8 13 1 -3
BITMAP
7F
31
30
32
3E
32
30
30
30
7F
02
02
01
ENDCHAR
STARTCHAR 0119
ENCODING 281
SWIDTH 523 0
DWIDTH 8 0
BBX 6 10 1 -3
BITMAP
78
CC
CC
FC
C0
C0
7C
10
10
0C
ENDCHAR
STARTCHAR 011A
ENCODING 282
SWIDTH 654 0
DWIDTH 10 0
BBX 8 13 1 0
BITMAP
1B
0E
00
7F
31
30
32
3E
32
30
30
30
7F
ENDCHAR
STARTCHAR 011B
ENCODING 283
SWIDTH 523 0
DWIDTH 8 0
BBX 6 10 1 0
BITMAP
6C
38
00
78
CC
CC
FC
C0
C0
7C
ENDCHAR
STARTCHAR 011C
ENCODING 284
SWIDTH 720 0
DWIDTH 11 0
BBX 10 14 1 0
BITMAP
0400
0E00
1100
0000
3F80
6180
C080
C000
C000
C3C0
C180
C180
6180
1F00
ENDCHAR
STARTCHAR 011D
ENCODING 285
SWIDTH 523 0
DWIDTH 8 0
BBX 8 14 0 -3
BITMAP
10
38
44
00
3E
66
66
66
3C
40
FE
7F
C3
7E
ENDCHAR
STARTCHAR 011E
ENCODING 286
SWIDTH 720 0
DWIDTH 11 0
BBX 10 13 1 0
BITMAP
1200
0C00
0000
3F80
6180
C080
C000
C000
C3C0
C180
C180
6180
1F00
ENDCHAR
STARTCHAR 011F
ENCODING 287
SWIDTH 523 0
DWIDTH 8 0
BBX 8 13 0 -3
BITMAP
24
18
00
3E
66
66
66
3C
40
FE
7F
C3
7E
ENDCHAR
STARTCHAR 0120
ENCODING 288
SWIDTH 720 0
DWIDTH 11 0
BBX 10 13 1 0
BITMAP
0C00
0C00
0000
3F80
6180
C080
C000
C000
C3C0
C180
C180
6180
1F00
ENDCHAR
STARTCHAR 0121
ENCODING 289
SWIDTH 523 0
DWIDTH 8 0
BBX 8 13 0 -3
BITMAP
18
18
00
3E
66
66
66
3C
40
FE
7F
C3
7E
ENDCHAR
STARTCHAR 0122
ENCODING 290
SWIDTH 720 0
DWIDTH 11 0
BBX 10 14 1 -4
BITMAP
3F80
6180
C080
C000
C000
C3C0
C180
C180
6180
1F00
0000
0C00
0400
0800
ENDCHAR
STARTCHAR 0123
ENCODING 291
SWIDTH 523 0
DWIDTH 8 0
BBX 8 14 0 -3
BITMAP
10
20
30
00
3E
66
66
66
3C
40
FE
7F
C3
7E
ENDCHAR
STARTCHAR 0124
ENCODING 292
SWIDTH 785 0
DWIDTH 12 0
BBX 10 14 1 0
BITMAP
0200
0700
0880
0000
79C0
30C0
30C0
30C0
3FC0
30C0
30C0
30C0
30C0
79C0
ENDCHAR
STARTCHAR 0125
ENCODING 293
SWIDTH 523 0
DWIDTH 8 0
BBX 8 14 0 0
BITMAP
10
38
44
00
E0
60
60
7C
66
66
66
66
66
F7
ENDCHAR
STARTCHAR 0126
ENCODING 294
SWIDTH 785 0
DWIDTH 12 0
BBX 10 10 1 0
BITMAP
79C0
30C0
7FC0
30C0
3FC0
30C0
30C0
30C0
30C0
79C0
ENDCHAR
STARTCHAR 0127
ENCODING 295
SWIDTH 523 0
DWIDTH 8 0
BBX 8 10 0 0
BITMAP
70
7C
30
3E
33
33
33
33
33
7B
ENDCHAR
STARTCHAR 0128
ENCODING 296
SWIDTH 392 0
DWIDTH 6 0
BBX 5 13 1 0
BITMAP
30
58
00
78
30
30
30
30
30
30
30
30
78
ENDCHAR
STARTCHAR 0129
ENCODING 297
SWIDTH 261 0
DWIDTH 4 0
BBX 5 10 0 0
BITMAP
68
B0
00
E0
60
60
60
60
60
F0
ENDCHAR
STARTCHAR 012A
ENCODING 298
SWIDTH 392 0
DWIDTH 6 0
BBX 5 12 1 0
BITMAP
78
00
78
30
30
30
30
30
30
30
30
78
ENDCHAR
STARTCHAR 012B
ENCODING 299
SWIDTH 261 0
DWIDTH 4 0
BBX 5 9 0 0
BITMAP
F8
00
E0
60
60
60
60
60
F0
ENDCHAR
STARTCHAR 012C
ENCODING 300
SWIDTH 392 0
DWIDTH 6 0
BBX 4 13 1 0
BITMAP
40
30
00
70
30
30
30
30
30
30
30
30
70
ENDCHAR
STARTCHAR 012D
ENCODING 301
SWIDTH 261 0
DWIDTH 4 0
BBX 4 10 0 0
BITMAP
90
60
00
E0
60
60
60
60
60
F0
ENDCHAR
STARTCHAR 012E
ENCODING 302
SWIDTH 392 0
DWIDTH 6 0
BBX 4 13 1 -3
BITMAP
70
30
30
30
30
30
30
30
30
70
20
20
10
ENDCHAR
STARTCHAR 012F
ENCODING 303
SWIDTH 261 0
DWIDTH 4 0
BBX 4 13 0 -3
BITMAP
60
60
00
E0
60
60
60
60
60
F0
40
40
30
ENDCHAR
STARTCHAR 0130
ENCODING 304
SWIDTH 392 0
DWIDTH 6 0
BBX 4 13 1 0
BITMAP
30
30
00
70
30
30
30
30
30
30
30
30
70
ENDCHAR
STARTCHAR 0131
ENCODING 305
SWIDTH 261 0
DWIDTH 4 0
BBX 4 7 0 0
BITMAP
E0
60
60
60
60
60
F0
ENDCHAR
STARTCHAR 0132
ENCODING 306
SWIDTH 785 0
DWIDTH 12 0
BBX 11 10 1 0
BITMAP
78E0
3060
3060
3060
3060
3060
3060
3060
3260
7BC0
ENDCHAR
STARTCHAR 0133
ENCODING 307
SWIDTH 523 0
DWIDTH 8 0
BBX 7 13 0 -3
BITMAP
66
66
00
EE
66
66
66
66
66
F6
06
16
1C
ENDCHAR
STARTCHAR 0134
ENCODING 308
SWIDTH 523 0
DWIDTH 8 0
BBX 7 13 1 0
BITMAP
1C
32
00
3C
18
18
18
18
18
18
18
98
F0
ENDCHAR
STARTCHAR 0135
ENCODING 309
SWIDTH 261 0
DWIDTH 4 0
BBX 5 13 -1 -3
BITMAP
70
D8
00
70
30
30
30
30
30
30
30
B0
E0
ENDCHAR
STARTCHAR 0136
ENCODING 310
SWIDTH 785 0
DWIDTH 12 0
BBX 11 14 1 -4
BITMAP
78E0
3080
3100
3200
3600
3B00
3180
30C0
3060
7820
0000
0600
0200
0400
ENDCHAR
STARTCHAR 0137
ENCODING 311
SWIDTH 589 0
DWIDTH 9 0
BBX 9 14 0 -4
BITMAP
E000
6000
6000
6700
6400
6800
7C00
6E00
6300
F380
0000
0C00
0400
0800
ENDCHAR
STARTCHAR 0138
ENCODING 312
SWIDTH 523 0
DWIDTH 8 0
BBX 8 7 0 0
BITMAP
E6
64
68
7C
6C
66
F7
ENDCHAR
STARTCHAR 0139
ENCODING 313
SWIDTH 654 0
DWIDTH 10 0
BBX 8 13 1 0
BITMAP
0C
10
00
7C
30
30
30
30
30
30
30
30
7F
ENDCHAR
STARTCHAR 013A
ENCODING 314
SWIDTH 261 0
DWIDTH 4 0
BBX 4 13 0 0
BITMAP
30
40
00
E0
60
60
60
60
60
60
60
60
F0
ENDCHAR
STARTCHAR 013B
ENCODING 315
SWIDTH 654 0
DWIDTH 10 0
BBX 8 14 1 -4
BITMAP
7C
30
30
30
30
30
30
30
30
7F
00
06
02
04
ENDCHAR
STARTCHAR 013C
ENCODING 316
SWIDTH 261 0
DWIDTH 4 0
BBX 4 14 0 -4
BITMAP
E0
60
60
60
60
60
60
60
60
F0
00
60
20
40
ENDCHAR
STARTCHAR 013D
ENCODING 317
SWIDTH 654 0
DWIDTH 10 0
BBX 8 10 1 0
BITMAP
7D
31
30
33
30
30
30
30
30
7F
ENDCHAR
STARTCHAR 013E
ENCODING 318
SWIDTH 458 0
DWIDTH 7 0
BBX 7 10 0 0
BITMAP
E6
66
62
6C
60
60
60
60
60
F0
ENDCHAR
STARTCHAR 013F
ENCODING 319
SWIDTH 654 0
DWIDTH 10 0
BBX 8 10 1 0
BITMAP
7C
30
30
30
36
36
30
30
30
7F
ENDCHAR
STARTCHAR 0140
ENCODING 320
SWIDTH 392 0
DWIDTH 6 0
BBX 6 10 0 0
BITMAP
E0
60
60
60
6C
6C
60
60
60
F0
ENDCHAR
STARTCHAR 0141
ENCODING 321
SWIDTH 654 0
DWIDTH 10 0
BBX 8 10 1 0
BITMAP
7C
30
30
34
38
30
70
30
30
7F
ENDCHAR
STARTCHAR 0142
ENCODING 322
SWIDTH 261 0
DWIDTH 4 0
BBX 4 10 0 0
BITMAP
E0
60
60
60
70
60
E0
60
60
F0
ENDCHAR
STARTCHAR 0143
ENCODING 323
SWIDTH 720 0
DWIDTH 11 0
BBX 10 13 1 0
BITMAP
0180
0200
0000
70C0
3840
2C40
2E40
2640
2340
21C0
21C0
20C0
7040
ENDCHAR
STARTCHAR 0144
ENCODING 324
SWIDTH 523 0
DWIDTH 8 0
BBX 8 10 0 0
BITMAP
06
08
00
FC
66
66
66
66
66
F7
ENDCHAR
STARTCHAR 0145
ENCODING 325
SWIDTH 720 0
DWIDTH 11 0
BBX 10 14 1 -4
BITMAP
70C0
3840
2C40
2E40
2640
2340
21C0
21C0
20C0
7040
0000
0600
0200
0400
ENDCHAR
STARTCHAR 0146
ENCODING 326
SWIDTH 523 0
DWIDTH 8 0
BBX 8 11 0 -4
BITMAP
FC
66
66
66
66
66
F7
00
18
08
10
ENDCHAR
STARTCHAR 0147
ENCODING 327
SWIDTH 720 0
DWIDTH 11 0
BBX 10 13 1 0
BITMAP
0D80
0700
0000
70C0
3840
2C40
2E40
2640
2340
21C0
21C0
20C0
7040
ENDCHAR
STARTCHAR 0148
ENCODING 328
SWIDTH 523 0
DWIDTH 8 0
BBX 8 10 0 0
BITMAP
36
1C
00
FC
66
66
66
66
66
F7
ENDCHAR
STARTCHAR 0149
ENCODING 329
SWIDTH 720 0
DWIDTH 11 0
BBX 11 10 0 0
BITMAP
C000
C000
4000
9F80
0CC0
0CC0
0CC0
0CC0
0CC0
1EE0
ENDCHAR
STARTCHAR 014A
ENCODING 330
SWIDTH 785 0
DWIDTH 12 0
BBX 8 10 2 0
BITMAP
EF
71
61
61
61
61
61
61
65
F7
ENDCHAR
STARTCHAR 014B
ENCODING 331
SWIDTH 523 0
DWIDTH 8 0
BBX 7 10 0 -3
BITMAP
FC
66
66
66
66
66
F6
06
16
1C
ENDCHAR
STARTCHAR 014C
ENCODING 332
SWIDTH 785 0
DWIDTH 12 0
BBX 10 12 1 0
BITMAP
1F00
0000
3F00
6180
C0C0
C0C0
C0C0
C0C0
C0C0
C0C0
6180
3F00
ENDCHAR
STARTCHAR 014D
ENCODING 333
SWIDTH 523 0
DWIDTH 8 0
BBX 6 9 1 0
BITMAP
7C
00
78
CC
CC
CC
CC
CC
78
ENDCHAR
STARTCHAR 014E
ENCODING 334
SWIDTH 785 0
DWIDTH 12 0
BBX 10 13 1 0
BITMAP
1200
0C00
0000
3F00
6180
C0C0
C0C0
C0C0
C0C0
C0C0
C0C0
6180
3F00
ENDCHAR
STARTCHAR 014F
ENCODING 335
SWIDTH 523 0
DWIDTH 8 0
BBX 6 10 1 0
BITMAP
48
30
00
78
CC
CC
CC
CC
CC
78
ENDCHAR
STARTCHAR 0150
ENCODING 336
SWIDTH 785 0
DWIDTH 12 0
BBX 10 14 1 0
BITMAP
0780
0D00
0A00
0000
3F00
6180
C0C0
C0C0
C0C0
C0C0
C0C0
C0C0
6180
3F00
ENDCHAR
STARTCHAR 0151
ENCODING 337
SWIDTH 523 0
DWIDTH 8 0
BBX 7 10 1 0
BITMAP
36
48
00
78
CC
CC
CC
CC
CC
78
ENDCHAR
STARTCHAR 0152
ENCODING 338
SWIDTH 981 0
DWIDTH 15 0
BBX 13 10 1 0
BITMAP
3FF0
6310
C300
C320
C3E0
C320
C300
C308
6308
3FF8
ENDCHAR
STARTCHAR 0153
ENCODING 339
SWIDTH 720 0
DWIDTH 11 0
BBX 10 7 0 0
BITMAP
7B80
CCC0
CCC0
CFC0
CC00
CC00
7BC0
ENDCHAR
STARTCHAR 0154
ENCODING 340
SWIDTH 720 0
DWIDTH 11 0
BBX 10 13 1 0
BITMAP
0300
0400
0000
7F00
3180
3180
3180
3180
3F00
3300
3300
3180
78C0
ENDCHAR
STARTCHAR 0155
ENCODING 341
SWIDTH 392 0
DWIDTH 6 0
BBX 6 10 0 0
BITMAP
0C
10
00
EC
7C
64
60
60
60
F0
ENDCHAR
STARTCHAR 0156
ENCODING 342
SWIDTH 720 0
DWIDTH 11 0
BBX 10 14 1 -4
BITMAP
7F00
3180
3180
3180
3180
3F00
3300
3300
3180
78C0
0000
0600
0200
0400
ENDCHAR
STARTCHAR 0157
ENCODING 343
SWIDTH 392 0
DWIDTH 6 0
BBX 6 11 0 -4
BITMAP
EC
7C
64
60
60
60
F0
00
60
20
40
ENDCHAR
STARTCHAR 0158
ENCODING 344
SWIDTH 720 0
DWIDTH 11 0
BBX 10 13 1 0
BITMAP
1B00
0E00
0000
7F00
3180
3180
3180
3180
3F00
3300
3300
3180
78C0
ENDCHAR
STARTCHAR 0159
ENCODING 345
SWIDTH 392 0
DWIDTH 6 0
BBX 6 10 0 0
BITMAP
6C
38
00
EC
7C
64
60
60
60
F0
ENDCHAR
STARTCHAR 015A
ENCODING 346
SWIDTH 523 0
DWIDTH 8 0
BBX 6 13 1 0
BITMAP
0C
10
00
7C
C4
C4
E0
78
1C
0C
8C
8C
F8
ENDCHAR
STARTCHAR 015B
ENCODING 347
SWIDTH 458 0
DWIDTH 7 0
BBX 5 10 1 0
BITMAP
18
20
00
78
C8
E0
F0
38
98
F0
ENDCHAR
STARTCHAR 015C
ENCODING 348
SWIDTH 523 0
DWIDTH 8 0
BBX 6 14 1 0
BITMAP
20
70
88
00
7C
C4
C4
E0
78
1C
0C
8C
8C
F8
ENDCHAR
STARTCHAR 015D
ENCODING 349
SWIDTH 458 0
DWIDTH 7 0
BBX 5 10 1 0
BITMAP
70
D8
00
78
C8
E0
F0
38
98
F0
ENDCHAR
STARTCHAR 015E
ENCODING 350
SWIDTH 523 0
DWIDTH 8 0
BBX 6 13 1 -4
BITMAP
7C
C4
C4
E0
78
1C
0C
8C
8C
F8
10
08
38
ENDCHAR
STARTCHAR 015F
ENCODING 351
SWIDTH 458 0
DWIDTH 7 0
BBX 5 10 1 -3
BITMAP
78
C8
E0
F0
38
98
F0
20
10
60
ENDCHAR
STARTCHAR 0160
ENCODING 352
SWIDTH 523 0
DWIDTH 8 0
BBX 6 13 1 0
BITMAP
6C
38
00
7C
C4
C4
E0
78
1C
0C
8C
8C
F8
ENDCHAR
STARTCHAR 0161
ENCODING 353
SWIDTH 458 0
DWIDTH 7 0
BBX 5 10 1 0
BITMAP
D8
70
00
78
C8
E0
F0
38
98
F0
ENDCHAR
STARTCHAR 0162
ENCODING 354
SWIDTH 654 0
DWIDTH 10 0
BBX 10 14 0 -4
BITMAP
FFC0
8C40
8C40
0C00
0C00
0C00
0C00
0C00
0C00
3F00
0000
0600
0200
0400
ENDCHAR
STARTCHAR 0163
ENCODING 355
SWIDTH 327 0
DWIDTH 5 0
BBX 5 13 0 -4
BITMAP
20
60
F0
60
60
60
60
60
38
00
30
10
20
ENDCHAR
STARTCHAR 0164
ENCODING 356
SWIDTH 654 0
DWIDTH 10 0
BBX 10 13 0 0
BITMAP
1B00
0E00
0000
FFC0
8C40
8C40
0C00
0C00
0C00
0C00
0C00
0C00
3F00
ENDCHAR
STARTCHAR 0165
ENCODING 357
SWIDTH 523 0
DWIDTH 8 0
BBX 7 11 0 0
BITMAP
06
06
22
6C
F0
60
60
60
60
60
38
ENDCHAR
STARTCHAR 0166
ENCODING 358
SWIDTH 654 0
DWIDTH 10 0
BBX 10 10 0 0
BITMAP
FFC0
8C40
8C40
0C00
3F00
0C00
0C00
0C00
0C00
3F00
ENDCHAR
STARTCHAR 0167
ENCODING 359
SWIDTH 327 0
DWIDTH 5 0
BBX 5 9 0 0
BITMAP
20
60
F0
60
60
F0
60
60
38
ENDCHAR
STARTCHAR 0168
ENCODING 360
SWIDTH 720 0
DWIDTH 11 0
BBX 8 13 2 0
BITMAP
0D
16
00
F3
61
61
61
61
61
61
61
61
3E
ENDCHAR
STARTCHAR 0169
ENCODING 361
SWIDTH 523 0
DWIDTH 8 0
BBX 8 10 0 0
BITMAP
1A
2C
00
EE
66
66
66
66
66
3F
ENDCHAR
STARTCHAR 016A
ENCODING 362
SWIDTH 720 0
DWIDTH 11 0
BBX 8 12 2 0
BITMAP
1F
00
F3
61
61
61
61
61
61
61
61
3E
ENDCHAR
STARTCHAR 016B
ENCODING 363
SWIDTH 523 0
DWIDTH 8 0
BBX 8 9 0 0
BITMAP
3E
00
EE
66
66
66
66
66
3F
ENDCHAR
STARTCHAR 016C
ENCODING 364
SWIDTH 720 0
DWIDTH 11 0
BBX 8 13 2 0
BITMAP
12
0C
00
F3
61
61
61
61
61
61
61
61
3E
ENDCHAR
STARTCHAR 016D
ENCODING 365
SWIDTH 523 0
DWIDTH 8 0
BBX 8 10 0 0
BITMAP
24
18
00
EE
66
66
66
66
66
3F
ENDCHAR
STARTCHAR 016E
ENCODING 366
SWIDTH 720 0
DWIDTH 11 0
BBX 8 14 2 0
BITMAP
04
0A
04
00
F3
61
61
61
61
61
61
61
61
3E
ENDCHAR
STARTCHAR 016F
ENCODING 367
SWIDTH 523 0
DWIDTH 8 0
BBX 8 11 0 0
BITMAP
08
14
08
00
EE
66
66
66
66
66
3F
ENDCHAR
STARTCHAR 0170
ENCODING 368
SWIDTH 720 0
DWIDTH 11 0
BBX 8 13 2 0
BITMAP
1B
24
00
F3
61
61
61
61
61
61
61
61
3E
ENDCHAR
STARTCHAR 0171
ENCODING 369
SWIDTH 523 0
DWIDTH 8 0
BBX 8 11 0 0
BITMAP
1E
34
28
00
EE
66
66
66
66
66
3F
ENDCHAR
STARTCHAR 0172
ENCODING 370
SWIDTH 720 0
DWIDTH 11 0
BBX 8 13 2 -3
BITMAP
F3
61
61
61
61
61
61
61
61
3E
08
08
06
ENDCHAR
STARTCHAR 0173
ENCODING 371
SWIDTH 523 0
DWIDTH 8 0
BBX 8 10 0 -3
BITMAP
EE
66
66
66
66
66
3F
04
04
03
ENDCHAR
STARTCHAR 0174
ENCODING 372
SWIDTH 916 0
DWIDTH 14 0
BBX 14 14 0 0
BITMAP
0100
0380
0440
0000
F01C
6108
3110
3390
3390
1DA0
1CE0
1CE0
0840
0840
ENDCHAR
STARTCHAR 0175
ENCODING 373
SWIDTH 654 0
DWIDTH 10 0
BBX 10 10 0 0
BITMAP
0E00
1900
0000
F1C0
6480
6680
6E80
3700
3300
3300
ENDCHAR
STARTCHAR 0176
ENCODING 374
SWIDTH 654 0
DWIDTH 10 0
BBX 10 14 0 0
BITMAP
0400
0E00
1100
0000
F1C0
6080
3100
3200
1A00
0C00
0C00
0C00
0C00
3F00
ENDCHAR
STARTCHAR 0177
ENCODING 375
SWIDTH 458 0
DWIDTH 7 0
BBX 7 13 0 -3
BITMAP
1C
32
00
76
62
34
34
3C
18
18
10
50
60
ENDCHAR
STARTCHAR 0178
ENCODING 376
SWIDTH 654 0
DWIDTH 10 0
BBX 10 13 0 0
BITMAP
1B00
1B00
0000
F1C0
6080
3100
3200
1A00
0C00
0C00
0C00
0C00
3F00
ENDCHAR
STARTCHAR 0179
ENCODING 377
SWIDTH 589 0
DWIDTH 9 0
BBX 7 13 1 0
BITMAP
0C
10
00
FE
86
8C
18
18
30
30
62
C2
FE
ENDCHAR
STARTCHAR 017A
ENCODING 378
SWIDTH 392 0
DWIDTH 6 0
BBX 6 10 0 0
BITMAP
18
20
00
FC
98
18
30
64
64
FC
ENDCHAR
STARTCHAR 017B
ENCODING 379
SWIDTH 589 0
DWIDTH 9 0
BBX 7 13 1 0
BITMAP
18
18
00
FE
86
8C
18
18
30
30
62
C2
FE
ENDCHAR
STARTCHAR 017C
ENCODING 380
SWIDTH 392 0
DWIDTH 6 0
BBX 6 10 0 0
BITMAP
30
30
00
FC
98
18
30
64
64
FC
ENDCHAR
STARTCHAR 017D
ENCODING 381
SWIDTH 589 0
DWIDTH 9 0
BBX 7 13 1 0
BITMAP
6C
38
00
FE
86
8C
18
18
30
30
62
C2
FE
ENDCHAR
STARTCHAR 017E
ENCODING 382
SWIDTH 392 0
DWIDTH 6 0
BBX 6 10 0 0
BITMAP
6C
38
00
FC
98
18
30
64
64
FC
ENDCHAR
STARTCHAR 017F
ENCODING 383
SWIDTH 261 0
DWIDTH 4 0
BBX 5 10 0 0
BITMAP
38
68
60
60
60
60
60
60
60
F0
ENDCHAR
STARTCHAR 0192
ENCODING 402
SWIDTH 523 0
DWIDTH 8 0
BBX 6 12 2 -2
BITMAP
0C
18
30
30
7C
30
30
30
60
60
60
60
ENDCHAR
STARTCHAR 01FA
ENCODING 506
SWIDTH 720 0
DWIDTH 11 0
BBX 11 15 0 0
BITMAP
0300
0400
0000
0400
0A00
0C00
1600
1600
1600
2300
2300
3F80
4180
40C0
E1E0
ENDCHAR
STARTCHAR 01FB
ENCODING 507
SWIDTH 458 0
DWIDTH 7 0
BBX 7 13 0 0
BITMAP
0C
10
10
28
10
00
78
4C
0C
7C
CC
CC
7E
ENDCHAR
STARTCHAR 01FC
ENCODING 508
SWIDTH 981 0
DWIDTH 15 0
BBX 14 13 0 0
BITMAP
0060
0080
0000
07F8
0388
0580
0990
09F0
1190
1F80
2184
4184
E3FC
ENDCHAR
STARTCHAR 01FD
ENCODING 509
SWIDTH 720 0
DWIDTH 11 0
BBX 10 10 0 0
BITMAP
0600
0800
0000
7F80
4CC0
0CC0
7FC0
CC00
CC00
F7C0
ENDCHAR
STARTCHAR 01FE
ENCODING 510
SWIDTH 785 0
DWIDTH 12 0
BBX 10 14 1 -1
BITMAP
0300
0400
0040
3F80
6180
C1C0
C2C0
C4C0
C8C0
D0C0
E0C0
6180
BF00
8000
ENDCHAR
STARTCHAR 01FF
ENCODING 511
SWIDTH 523 0
DWIDTH 8 0
BBX 6 11 1 -1
BITMAP
0C
10
00
3C
64
6C
74
64
64
3C
40
ENDCHAR
STARTCHAR 02C6
ENCODING 710
SWIDTH 327 0
DWIDTH 5 0
BBX 5 2 0 8
BITMAP
70
D8
ENDCHAR
STARTCHAR 02C7
ENCODING 711
SWIDTH 327 0
DWIDTH 5 0
BBX 5 2 0 8
BITMAP
D8
70
ENDCHAR
STARTCHAR 02C9
ENCODING 713
SWIDTH 327 0
DWIDTH 5 0
BBX 5 1 0 8
BITMAP
F8
ENDCHAR
STARTCHAR 02D8
ENCODING 728
SWIDTH 327 0
DWIDTH 5 0
BBX 4 2 0 8
BITMAP
90
60
ENDCHAR
STARTCHAR 02D9
ENCODING 729
SWIDTH 327 0
DWIDTH 5 0
BBX 2 2 1 8
BITMAP
C0
C0
ENDCHAR
STARTCHAR 02DA
ENCODING 730
SWIDTH 327 0
DWIDTH 5 0
BBX 3 3 1 8
BITMAP
40
A0
40
ENDCHAR
STARTCHAR 02DB
ENCODING 731
SWIDTH 327 0
DWIDTH 5 0
BBX 3 3 1 -3
BITMAP
80
80
60
ENDCHAR
STARTCHAR 02DC
ENCODING 732
SWIDTH 327 0
DWIDTH 5 0
BBX 5 2 0 8
BITMAP
68
B0
ENDCHAR
STARTCHAR 02DD
ENCODING 733
SWIDTH 327 0
DWIDTH 5 0
BBX 6 2 0 8
BITMAP
6C
90
ENDCHAR
STARTCHAR 037E
ENCODING 894
SWIDTH 327 0
DWIDTH 5 0
BBX 2 9 1 -2
BITMAP
C0
C0
00
00
00
C0
C0
40
80
ENDCHAR
STARTCHAR 0384
ENCODING 900
SWIDTH 327 0
DWIDTH 5 0
BBX 2 3 2 8
BITMAP
C0
80
80
ENDCHAR
STARTCHAR 0385
ENCODING 901
SWIDTH 327 0
DWIDTH 5 0
BBX 7 3 -1 8
BITMAP
18
D6
D6
ENDCHAR
STARTCHAR 0386
ENCODING 902
SWIDTH 720 0
DWIDTH 11 0
BBX 11 10 0 0
BITMAP
6C00
5600
5600
1600
2300
2300
3F80
4180
40C0
E1E0
ENDCHAR
STARTCHAR 0387
ENCODING 903
SWIDTH 327 0
DWIDTH 5 0
BBX 2 2 1 4
BITMAP
C0
C0
ENDCHAR
STARTCHAR 0388
ENCODING 904
SWIDTH 785 0
DWIDTH 12 0
BBX 11 10 0 0
BITMAP
9FC0
8C40
0C00
0C80
0F80
0C80
0C00
0C20
0C20
1FE0
ENDCHAR
STARTCHAR 0389
ENCODING 905
SWIDTH 916 0
DWIDTH 14 0
BBX 13 10 0 0
BITMAP
DE78
8C30
8C30
0C30
0FF0
0C30
0C30
0C30
0C30
1E78
ENDCHAR
STARTCHAR 038A
ENCODING 906
SWIDTH 523 0
DWIDTH 8 0
BBX 7 10 0 0
BITMAP
DE
8C
8C
0C
0C
0C
0C
0C
0C
1E
ENDCHAR
STARTCHAR 038C
ENCODING 908
SWIDTH 785 0
DWIDTH 12 0
BBX 12 10 -1 0
BITMAP
CFC0
9860
B030
3030
3030
3030
3030
3030
1860
0FC0
ENDCHAR
STARTCHAR 038E
ENCODING 910
SWIDTH 850 0
DWIDTH 13 0
BBX 13 10 0 0
BITMAP
DE38
8C10
8620
0640
0340
0180
0180
0180
0180
07E0
ENDCHAR
STARTCHAR 038F
ENCODING 911
SWIDTH 785 0
DWIDTH 12 0
BBX 12 10 -1 0
BITMAP
CFC0
9860
B030
3030
3030
3860
0CC0
2490
3CF0
3CF0
ENDCHAR
STARTCHAR 0390
ENCODING 912
SWIDTH 327 0
DWIDTH 5 0
BBX 7 11 -1 0
BITMAP
18
D6
D6
00
70
30
30
30
30
30
18
ENDCHAR
STARTCHAR 0391
ENCODING 913
SWIDTH 720 0
DWIDTH 11 0
BBX 11 10 0 0
BITMAP
0C00
1600
1600
1600
2300
2300
3F80
4180
40C0
E1E0
ENDCHAR
STARTCHAR 0392
ENCODING 914
SWIDTH 720 0
DWIDTH 11 0
BBX 8 10 2 -1
BITMAP
FE
63
63
63
7C
63
61
61
63
FE
ENDCHAR
STARTCHAR 0393
ENCODING 915
SWIDTH 654 0
DWIDTH 10 0
BBX 8 10 1 0
BITMAP
7F
30
30
30
30
30
30
30
30
7C
ENDCHAR
STARTCHAR 0394
ENCODING 916
SWIDTH 589 0
DWIDTH 9 0
BBX 8 10 0 0
BITMAP
18
18
2C
2C
2C
46
46
46
83
FF
ENDCHAR
STARTCHAR 0395
ENCODING 917
SWIDTH 654 0
DWIDTH 10 0
BBX 8 10 1 0
BITMAP
7F
31
30
32
3E
32
30
30
30
7F
ENDCHAR
STARTCHAR 0396
ENCODING 918
SWIDTH 589 0
DWIDTH 9 0
BBX 7 10 1 0
BITMAP
FE
86
8C
18
18
30
30
62
C2
FE
ENDCHAR
STARTCHAR 0397
ENCODING 919
SWIDTH 785 0
DWIDTH 12 0
BBX 10 10 1 0
BITMAP
79C0
30C0
30C0
30C0
3FC0
30C0
30C0
30C0
30C0
79C0
ENDCHAR
STARTCHAR 0398
ENCODING 920
SWIDTH 785 0
DWIDTH 12 0
BBX 10 10 1 0
BITMAP
3F00
6180
C0C0
D2C0
DEC0
DEC0
D2C0
C0C0
6180
3F00
ENDCHAR
STARTCHAR 0399
ENCODING 921
SWIDTH 392 0
DWIDTH 6 0
BBX 4 10 1 0
BITMAP
70
30
30
30
30
30
30
30
30
70
ENDCHAR
STARTCHAR 039A
ENCODING 922
SWIDTH 785 0
DWIDTH 12 0
BBX 11 10 1 0
BITMAP
78E0
3080
3100
3200
3600
3B00
3180
30C0
3060
7820
ENDCHAR
STARTCHAR 039B
ENCODING 923
SWIDTH 720 0
DWIDTH 11 0
BBX 11 10 0 0
BITMAP
0400
0E00
0E00
1300
1300
2180
2180
2180
40C0
E1E0
ENDCHAR
STARTCHAR 039C
ENCODING 924
SWIDTH 981 0
DWIDTH 15 0
BBX 13 10 1 0
BITMAP
7018
3838
3838
2C58
2C58
2698
2698
2318
2318
7238
ENDCHAR
STARTCHAR 039D
ENCODING 925
SWIDTH 720 0
DWIDTH 11 0
BBX 10 10 1 0
BITMAP
70C0
3840
2C40
2E40
2640
2340
21C0
21C0
20C0
7040
ENDCHAR
STARTCHAR 039E
ENCODING 926
SWIDTH 654 0
DWIDTH 10 0
BBX 8 10 1 0
BITMAP
FF
FF
81
24
3C
3C
24
81
FF
FF
ENDCHAR
STARTCHAR 039F
ENCODING 927
SWIDTH 785 0
DWIDTH 12 0
BBX 10 10 1 0
BITMAP
3F00
6180
C0C0
C0C0
C0C0
C0C0
C0C0
C0C0
6180
3F00
ENDCHAR
STARTCHAR 03A0
ENCODING 928
SWIDTH 785 0
DWIDTH 12 0
BBX 10 10 1 0
BITMAP
7FC0
30C0
30C0
30C0
30C0
30C0
30C0
30C0
30C0
79C0
ENDCHAR
STARTCHAR 03A1
ENCODING 929
SWIDTH 589 0
DWIDTH 9 0
BBX 7 10 1 0
BITMAP
7E
32
32
32
32
3E
30
30
30
7C
ENDCHAR
STARTCHAR 03A3
ENCODING 931
SWIDTH 654 0
DWIDTH 10 0
BBX 8 10 1 0
BITMAP
FE
C2
62
30
18
10
20
41
7F
FF
ENDCHAR
STARTCHAR 03A4
ENCODING 932
SWIDTH 654 0
DWIDTH 10 0
BBX 10 10 0 0
BITMAP
FFC0
8C40
8C40
0C00
0C00
0C00
0C00
0C00
0C00
3F00
ENDCHAR
STARTCHAR 03A5
ENCODING 933
SWIDTH 654 0
DWIDTH 10 0
BBX 10 10 0 0
BITMAP
F1C0
6080
3100
3200
1A00
0C00
0C00
0C00
0C00
3F00
ENDCHAR
STARTCHAR 03A6
ENCODING 934
SWIDTH 785 0
DWIDTH 12 0
BBX 10 10 1 0
BITMAP
1E00
0C00
7F80
CCC0
CCC0
CCC0
CCC0
7F80
0C00
1E00
ENDCHAR
STARTCHAR 03A7
ENCODING 935
SWIDTH 654 0
DWIDTH 10 0
BBX 10 10 0 0
BITMAP
F1C0
7100
3100
1A00
0C00
0C00
1600
2300
2180
E3C0
ENDCHAR
STARTCHAR 03A8
ENCODING 936
SWIDTH 785 0
DWIDTH 12 0
BBX 12 10 0 0
BITMAP
EF70
6660
6660
6660
36C0
1F80
0600
0600
0600
0F00
ENDCHAR
STARTCHAR 03A9
ENCODING 937
SWIDTH 785 0
DWIDTH 12 0
BBX 10 10 1 0
BITMAP
3F00
6180
C0C0
C0C0
C0C0
E180
3300
9240
F3C0
F3C0
ENDCHAR
STARTCHAR 03AA
ENCODING 938
SWIDTH 392 0
DWIDTH 6 0
BBX 5 13 1 0
BITMAP
68
68
00
78
30
30
30
30
30
30
30
30
78
ENDCHAR
STARTCHAR 03AB
ENCODING 939
SWIDTH 654 0
DWIDTH 10 0
BBX 10 13 0 0
BITMAP
1B00
1B00
0000
F1C0
6080
3100
3200
1A00
0C00
0C00
0C00
0C00
3F00
ENDCHAR
STARTCHAR 03AC
ENCODING 940
SWIDTH 523 0
DWIDTH 8 0
BBX 7 11 1 0
BITMAP
18
10
10
00
76
CC
CC
CC
CC
CC
76
ENDCHAR
STARTCHAR 03AD
ENCODING 941
SWIDTH 392 0
DWIDTH 6 0
BBX 5 11 1 0
BITMAP
18
10
10
00
78
C8
C0
70
C0
C0
78
ENDCHAR
STARTCHAR 03AE
ENCODING 942
SWIDTH 589 0
DWIDTH 9 0
BBX 8 14 0 -3
BITMAP
0C
08
08
00
EE
73
63
63
63
63
63
03
03
03
ENDCHAR
STARTCHAR 03AF
ENCODING 943
SWIDTH 327 0
DWIDTH 5 0
BBX 4 11 0 0
BITMAP
30
20
20
00
E0
60
60
60
60
60
30
ENDCHAR
STARTCHAR 03B0
ENCODING 944
SWIDTH 523 0
DWIDTH 8 0
BBX 8 11 0 0
BITMAP
0C
6B
6B
00
EC
66
66
66
66
66
3C
ENDCHAR
STARTCHAR 03B1
ENCODING 945
SWIDTH 523 0
DWIDTH 8 0
BBX 7 7 1 0
BITMAP
76
CC
CC
CC
CC
CC
76
ENDCHAR
STARTCHAR 03B2
ENCODING 946
SWIDTH 523 0
DWIDTH 8 0
BBX 6 13 1 -3
BITMAP
78
CC
CC
CC
D0
CC
CC
CC
CC
F8
C0
C0
C0
ENDCHAR
STARTCHAR 03B3
ENCODING 947
SWIDTH 458 0
DWIDTH 7 0
BBX 6 10 0 -3
BITMAP
EC
64
64
68
68
30
30
30
30
30
ENDCHAR
STARTCHAR 03B4
ENCODING 948
SWIDTH 523 0
DWIDTH 8 0
BBX 6 10 1 0
BITMAP
38
68
60
30
78
CC
CC
CC
CC
78
ENDCHAR
STARTCHAR 03B5
ENCODING 949
SWIDTH 392 0
DWIDTH 6 0
BBX 5 7 1 0
BITMAP
78
C8
C0
70
C0
C0
78
ENDCHAR
STARTCHAR 03B6
ENCODING 950
SWIDTH 392 0
DWIDTH 6 0
BBX 5 13 1 -3
BITMAP
78
10
30
20
60
C0
C0
C0
E0
78
18
08
30
ENDCHAR
STARTCHAR 03B7
ENCODING 951
SWIDTH 589 0
DWIDTH 9 0
BBX 8 10 0 -3
BITMAP
EE
73
63
63
63
63
63
03
03
03
ENDCHAR
STARTCHAR 03B8
ENCODING 952
SWIDTH 523 0
DWIDTH 8 0
BBX 6 10 1 0
BITMAP
78
CC
CC
CC
FC
CC
CC
CC
CC
78
ENDCHAR
STARTCHAR 03B9
ENCODING 953
SWIDTH 327 0
DWIDTH 5 0
BBX 4 7 0 0
BITMAP
E0
60
60
60
60
60
30
ENDCHAR
STARTCHAR 03BA
ENCODING 954
SWIDTH 523 0
DWIDTH 8 0
BBX 8 7 0 0
BITMAP
E3
64
68
7C
6C
66
67
ENDCHAR
STARTCHAR 03BB
ENCODING 955
SWIDTH 458 0
DWIDTH 7 0
BBX 7 10 0 0
BITMAP
60
50
10
08
18
38
34
64
64
C6
ENDCHAR
STARTCHAR 03BC
ENCODING 956
SWIDTH 589 0
DWIDTH 9 0
BBX 9 10 0 -3
BITMAP
E700
6300
6300
6300
6300
6300
7F80
6000
6000
6000
ENDCHAR
STARTCHAR 03BD
ENCODING 957
SWIDTH 458 0
DWIDTH 7 0
BBX 6 7 0 0
BITMAP
CC
C4
68
68
68
30
30
ENDCHAR
STARTCHAR 03BE
ENCODING 958
SWIDTH 458 0
DWIDTH 7 0
BBX 6 13 1 -3
BITMAP
F8
30
60
60
38
60
C0
C0
F0
7C
0C
04
18
ENDCHAR
STARTCHAR 03BF
ENCODING 959
SWIDTH 523 0
DWIDTH 8 0
BBX 6 7 1 0
BITMAP
78
CC
CC
CC
CC
CC
78
ENDCHAR
STARTCHAR 03C0
ENCODING 960
SWIDTH 523 0
DWIDTH 8 0
BBX 7 7 0 0
BITMAP
FE
AC
2C
2C
2C
2C
66
ENDCHAR
STARTCHAR 03C1
ENCODING 961
SWIDTH 523 0
DWIDTH 8 0
BBX 6 10 1 -3
BITMAP
78
CC
CC
CC
CC
CC
F8
C0
C0
C0
ENDCHAR
STARTCHAR 03C2
ENCODING 962
SWIDTH 392 0
DWIDTH 6 0
BBX 5 10 1 -3
BITMAP
78
C8
C0
C0
C0
E0
78
18
08
10
ENDCHAR
STARTCHAR 03C3
ENCODING 963
SWIDTH 523 0
DWIDTH 8 0
BBX 7 8 1 0
BITMAP
02
7E
C8
CC
CC
CC
CC
78
ENDCHAR
STARTCHAR 03C4
ENCODING 964
SWIDTH 458 0
DWIDTH 7 0
BBX 6 7 0 0
BITMAP
FC
B0
30
30
30
30
18
ENDCHAR
STARTCHAR 03C5
ENCODING 965
SWIDTH 523 0
DWIDTH 8 0
BBX 7 7 0 0
BITMAP
EC
66
66
66
66
66
3C
ENDCHAR
STARTCHAR 03C6
ENCODING 966
SWIDTH 589 0
DWIDTH 9 0
BBX 7 10 1 -3
BITMAP
5C
D6
D6
D6
D6
D6
7C
10
10
10
ENDCHAR
STARTCHAR 03C7
ENCODING 967
SWIDTH 458 0
DWIDTH 7 0
BBX 7 10 0 -3
BITMAP
C6
4C
2C
38
18
30
38
68
64
C6
ENDCHAR
STARTCHAR 03C8
ENCODING 968
SWIDTH 720 0
DWIDTH 11 0
BBX 11 12 0 -3
BITMAP
0400
0400
E4E0
64C0
64C0
64C0
64C0
3580
1F00
0400
0400
0400
ENDCHAR
STARTCHAR 03C9
ENCODING 969
SWIDTH 785 0
DWIDTH 12 0
BBX 9 7 1 0
BITMAP
2200
6300
C980
C980
C980
C980
7700
ENDCHAR
STARTCHAR 03CA
ENCODING 970
SWIDTH 327 0
DWIDTH 5 0
BBX 5 10 0 0
BITMAP
D8
D8
00
E0
60
60
60
60
60
30
ENDCHAR
STARTCHAR 03CB
ENCODING 971
SWIDTH 523 0
DWIDTH 8 0
BBX 7 10 0 0
BITMAP
36
36
00
EC
66
66
66
66
66
3C
ENDCHAR
STARTCHAR 03CC
ENCODING 972
SWIDTH 523 0
DWIDTH 8 0
BBX 6 11 1 0
BITMAP
18
10
10
00
78
CC
CC
CC
CC
CC
78
ENDCHAR
STARTCHAR 03CD
ENCODING 973
SWIDTH 523 0
DWIDTH 8 0
BBX 7 11 0 0
BITMAP
0C
08
08
00
EC
66
66
66
66
66
3C
ENDCHAR
STARTCHAR 03CE
ENCODING 974
SWIDTH 785 0
DWIDTH 12 0
BBX 9 11 1 0
BITMAP
0C00
0800
0800
0000
2200
6300
C980
C980
C980
C980
7700
ENDCHAR
STARTCHAR 0401
ENCODING 1025
SWIDTH 654 0
DWIDTH 10 0
BBX 8 13 1 0
BITMAP
1B
1B
00
7F
31
30
32
3E
32
30
30
30
7F
ENDCHAR
STARTCHAR 0402
ENCODING 1026
SWIDTH 785 0
DWIDTH 12 0
BBX 11 13 0 -3
BITMAP
FFC0
8C40
0C00
0FC0
0C60
0C60
0C60
0C60
0C60
1E60
0060
0260
03C0
ENDCHAR
STARTCHAR 0403
ENCODING 1027
SWIDTH 654 0
DWIDTH 10 0
BBX 8 13 1 0
BITMAP
03
04
00
7F
30
30
30
30
30
30
30
30
7C
ENDCHAR
STARTCHAR 0404
ENCODING 1028
SWIDTH 654 0
DWIDTH 10 0
BBX 8 10 1 0
BITMAP
3F
61
C1
C0
F8
C0
C0
C1
61
3F
ENDCHAR
STARTCHAR 0405
ENCODING 1029
SWIDTH 523 0
DWIDTH 8 0
BBX 6 10 1 0
BITMAP
7C
C4
C4
E0
78
1C
0C
8C
8C
F8
ENDCHAR
STARTCHAR 0406
ENCODING 1030
SWIDTH 392 0
DWIDTH 6 0
BBX 4 10 1 0
BITMAP
70
30
30
30
30
30
30
30
30
70
ENDCHAR
STARTCHAR 0407
ENCODING 1031
SWIDTH 392 0
DWIDTH 6 0
BBX 5 13 1 0
BITMAP
68
68
00
78
30
30
30
30
30
30
30
30
78
ENDCHAR
STARTCHAR 0408
ENCODING 1032
SWIDTH 523 0
DWIDTH 8 0
BBX 6 10 1 0
BITMAP
3C
18
18
18
18
18
18
18
98
F0
ENDCHAR
STARTCHAR 0409
ENCODING 1033
SWIDTH 981 0
DWIDTH 15 0
BBX 14 10 0 0
BITMAP
3FE0
1180
1180
1180
11F0
118C
118C
218C
A18C
C3F8
ENDCHAR
STARTCHAR 040A
ENCODING 1034
SWIDTH 981 0
DWIDTH 15 0
BBX 13 10 1 0
BITMAP
79E0
30C0
30C0
30C0
3FF8
30C8
30C8
30C8
30C8
79F8
ENDCHAR
STARTCHAR 040B
ENCODING 1035
SWIDTH 785 0
DWIDTH 12 0
BBX 12 10 0 0
BITMAP
FFC0
8C40
0C00
0FC0
0C60
0C60
0C60
0C60
0C60
1EF0
ENDCHAR
STARTCHAR 040C
ENCODING 1036
SWIDTH 720 0
DWIDTH 11 0
BBX 10 13 1 0
BITMAP
0300
0400
0000
78C0
3080
3100
3200
3600
3B00
3300
3180
30C0
7840
ENDCHAR
STARTCHAR 040E
ENCODING 1038
SWIDTH 720 0
DWIDTH 11 0
BBX 11 13 0 0
BITMAP
1980
0F00
0000
F0E0
6040
3080
1900
1900
0E00
0600
0400
4800
7000
ENDCHAR
STARTCHAR 040F
ENCODING 1039
SWIDTH 785 0
DWIDTH 12 0
BBX 10 12 1 -3
BITMAP
79C0
30C0
30C0
30C0
30C0
30C0
30C0
30C0
30C0
7FC0
0600
0600
ENDCHAR
STARTCHAR 0410
ENCODING 1040
SWIDTH 720 0
DWIDTH 11 0
BBX 11 10 0 0
BITMAP
0C00
1600
1600
1600
2300
2300
3F80
4180
40C0
E1E0
ENDCHAR
STARTCHAR 0411
ENCODING 1041
SWIDTH 654 0
DWIDTH 10 0
BBX 8 10 1 0
BITMAP
7F
31
30
30
3F
31
31
31
31
7F
ENDCHAR
STARTCHAR 0412
ENCODING 1042
SWIDTH 720 0
DWIDTH 11 0
BBX 8 10 2 -1
BITMAP
FE
63
63
63
7C
63
61
61
63
FE
ENDCHAR
STARTCHAR 0413
ENCODING 1043
SWIDTH 654 0
DWIDTH 10 0
BBX 8 10 1 0
BITMAP
7F
30
30
30
30
30
30
30
30
7C
ENDCHAR
STARTCHAR 0414
ENCODING 1044
SWIDTH 654 0
DWIDTH 10 0
BBX 9 13 0 -3
BITMAP
3F80
1300
1300
1300
1300
1300
2300
2300
2300
FF80
C180
C180
8080
ENDCHAR
STARTCHAR 0415
ENCODING 1045
SWIDTH 654 0
DWIDTH 10 0
BBX 8 10 1 0
BITMAP
7F
31
30
32
3E
32
30
30
30
7F
ENDCHAR
STARTCHAR 0416
ENCODING 1046
SWIDTH 916 0
DWIDTH 14 0
BBX 14 10 0 0
BITMAP
77B8
2310
1320
0B40
0FC0
1B60
3330
3330
6318
C78C
ENDCHAR
STARTCHAR 0417
ENCODING 1047
SWIDTH 523 0
DWIDTH 8 0
BBX 6 10 1 0
BITMAP
F8
8C
8C
0C
38
0C
0C
8C
8C
F8
ENDCHAR
STARTCHAR 0418
ENCODING 1048
SWIDTH 785 0
DWIDTH 12 0
BBX 10 10 1 0
BITMAP
79C0
30C0
31C0
32C0
32C0
34C0
38C0
38C0
30C0
79C0
ENDCHAR
STARTCHAR 0419
ENCODING 1049
SWIDTH 785 0
DWIDTH 12 0
BBX 10 13 1 0
BITMAP
1980
0F00
0000
79C0
30C0
31C0
32C0
32C0
34C0
38C0
38C0
30C0
79C0
ENDCHAR
STARTCHAR 041A
ENCODING 1050
SWIDTH 720 0
DWIDTH 11 0
BBX 10 10 1 0
BITMAP
78C0
3080
3100
3200
3600
3B00
3300
3180
30C0
7840
ENDCHAR
STARTCHAR 041B
ENCODING 1051
SWIDTH 720 0
DWIDTH 11 0
BBX 10 10 0 0
BITMAP
3FC0
1180
1180
1180
1180
1180
2180
2180
A180
C3C0
ENDCHAR
STARTCHAR 041C
ENCODING 1052
SWIDTH 981 0
DWIDTH 15 0
BBX 13 10 1 0
BITMAP
7018
3838
3838
2C58
2C58
2698
2698
2318
2318
7238
ENDCHAR
STARTCHAR 041D
ENCODING 1053
SWIDTH 785 0
DWIDTH 12 0
BBX 10 10 1 0
BITMAP
79C0
30C0
30C0
30C0
3FC0
30C0
30C0
30C0
30C0
79C0
ENDCHAR
STARTCHAR 041E
ENCODING 1054
SWIDTH 785 0
DWIDTH 12 0
BBX 10 10 1 0
BITMAP
3F00
6180
C0C0
C0C0
C0C0
C0C0
C0C0
C0C0
6180
3F00
ENDCHAR
STARTCHAR 041F
ENCODING 1055
SWIDTH 785 0
DWIDTH 12 0
BBX 10 10 1 0
BITMAP
7FC0
30C0
30C0
30C0
30C0
30C0
30C0
30C0
30C0
79C0
ENDCHAR
STARTCHAR 0420
ENCODING 1056
SWIDTH 589 0
DWIDTH 9 0
BBX 7 10 1 0
BITMAP
7E
32
32
32
32
3E
30
30
30
7C
ENDCHAR
STARTCHAR 0421
ENCODING 1057
SWIDTH 720 0
DWIDTH 11 0
BBX 9 10 1 0
BITMAP
3F80
6080
C080
C000
C000
C000
C000
C080
6080
3F80
ENDCHAR
STARTCHAR 0422
ENCODING 1058
SWIDTH 654 0
DWIDTH 10 0
BBX 10 10 0 0
BITMAP
FFC0
8C40
8C40
0C00
0C00
0C00
0C00
0C00
0C00
3F00
ENDCHAR
STARTCHAR 0423
ENCODING 1059
SWIDTH 720 0
DWIDTH 11 0
BBX 11 10 0 0
BITMAP
F0E0
6040
3080
1900
1900
0E00
0600
0400
4800
7000
ENDCHAR
STARTCHAR 0424
ENCODING 1060
SWIDTH 916 0
DWIDTH 14 0
BBX 12 10 1 0
BITMAP
0F00
0600
3FC0
6660
C630
C630
6660
3FC0
0600
0F00
ENDCHAR
STARTCHAR 0425
ENCODING 1061
SWIDTH 654 0
DWIDTH 10 0
BBX 10 10 0 0
BITMAP
F1C0
7100
3100
1A00
0C00
0C00
1600
2300
2180
E3C0
ENDCHAR
STARTCHAR 0426
ENCODING 1062
SWIDTH 785 0
DWIDTH 12 0
BBX 9 12 2 -2
BITMAP
F380
6180
6180
6180
6180
6180
6180
6180
6180
FF80
0080
0080
ENDCHAR
STARTCHAR 0427
ENCODING 1063
SWIDTH 720 0
DWIDTH 11 0
BBX 10 10 0 0
BITMAP
79C0
30C0
30C0
30C0
30C0
30C0
1FC0
00C0
00C0
01C0
ENDCHAR
STARTCHAR 0428
ENCODING 1064
SWIDTH 1178 0
DWIDTH 18 0
BBX 16 10 1 0
BITMAP
79E7
30C3
30C3
30C3
30C3
30C3
30C3
30C3
30C3
7FFF
ENDCHAR
STARTCHAR 0429
ENCODING 1065
SWIDTH 1178 0
DWIDTH 18 0
BBX 15 12 2 -2
BITMAP
F3CE
6186
6186
6186
6186
6186
6186
6186
6186
FFFE
0002
0002
ENDCHAR
STARTCHAR 042A
ENCODING 1066
SWIDTH 720 0
DWIDTH 11 0
BBX 10 10 0 0
BITMAP
FF00
8C00
0C00
0C00
0F80
0CC0
0CC0
0CC0
0CC0
1F80
ENDCHAR
STARTCHAR 042B
ENCODING 1067
SWIDTH 981 0
DWIDTH 15 0
BBX 13 10 1 0
BITMAP
7C38
3018
3018
3018
3F18
3198
3198
3198
3198
7F38
ENDCHAR
STARTCHAR 042C
ENCODING 1068
SWIDTH 654 0
DWIDTH 10 0
BBX 8 10 1 0
BITMAP
7C
30
30
30
3F
31
31
31
33
7F
ENDCHAR
STARTCHAR 042D
ENCODING 1069
SWIDTH 654 0
DWIDTH 10 0
BBX 8 10 1 0
BITMAP
FC
86
83
03
3F
03
03
83
86
FC
ENDCHAR
STARTCHAR 042E
ENCODING 1070
SWIDTH 1112 0
DWIDTH 17 0
BBX 15 10 1 0
BITMAP
78FC
3186
3302
3302
3F02
3302
3302
3302
3186
78FC
ENDCHAR
STARTCHAR 042F
ENCODING 1071
SWIDTH 720 0
DWIDTH 11 0
BBX 10 10 0 0
BITMAP
1FC0
3180
3180
3180
3180
1F80
1980
1980
3180
E3C0
ENDCHAR
STARTCHAR 0430
ENCODING 1072
SWIDTH 458 0
DWIDTH 7 0
BBX 7 7 0 0
BITMAP
78
4C
0C
7C
CC
CC
7E
ENDCHAR
STARTCHAR 0431
ENCODING 1073
SWIDTH 523 0
DWIDTH 8 0
BBX 6 10 1 0
BITMAP
0C
38
40
B8
CC
CC
CC
CC
CC
78
ENDCHAR
STARTCHAR 0432
ENCODING 1074
SWIDTH 523 0
DWIDTH 8 0
BBX 7 7 0 0
BITMAP
FC
66
66
7C
66
66
FC
ENDCHAR
STARTCHAR 0433
ENCODING 1075
SWIDTH 458 0
DWIDTH 7 0
BBX 6 7 0 0
BITMAP
FC
64
60
60
60
60
F0
ENDCHAR
STARTCHAR 0434
ENCODING 1076
SWIDTH 523 0
DWIDTH 8 0
BBX 8 10 0 -3
BITMAP
7F
26
26
26
46
46
FF
C3
81
81
ENDCHAR
STARTCHAR 0435
ENCODING 1077
SWIDTH 523 0
DWIDTH 8 0
BBX 6 7 1 0
BITMAP
78
CC
CC
FC
C0
C0
7C
ENDCHAR
STARTCHAR 0436
ENCODING 1078
SWIDTH 654 0
DWIDTH 10 0
BBX 10 7 0 0
BITMAP
DEC0
4C80
2D00
3F00
6D80
6D80
DEC0
ENDCHAR
STARTCHAR 0437
ENCODING 1079
SWIDTH 392 0
DWIDTH 6 0
BBX 5 7 0 0
BITMAP
F0
98
18
70
18
18
F0
ENDCHAR
STARTCHAR 0438
ENCODING 1080
SWIDTH 589 0
DWIDTH 9 0
BBX 9 7 0 0
BITMAP
F780
6300
6700
6B00
7300
6300
F780
ENDCHAR
STARTCHAR 0439
ENCODING 1081
SWIDTH 589 0
DWIDTH 9 0
BBX 9 10 0 0
BITMAP
3300
1E00
0000
F780
6300
6700
6B00
7300
6300
F780
ENDCHAR
STARTCHAR 043A
ENCODING 1082
SWIDTH 589 0
DWIDTH 9 0
BBX 9 7 0 0
BITMAP
F700
6400
6800
7C00
6600
6300
F380
ENDCHAR
STARTCHAR 043B
ENCODING 1083
SWIDTH 523 0
DWIDTH 8 0
BBX 8 7 0 0
BITMAP
3F
26
16
26
26
A6
CF
ENDCHAR
STARTCHAR 043C
ENCODING 1084
SWIDTH 654 0
DWIDTH 10 0
BBX 10 7 0 0
BITMAP
E1C0
7380
7380
5D80
5D80
4980
EBC0
ENDCHAR
STARTCHAR 043D
ENCODING 1085
SWIDTH 589 0
DWIDTH 9 0
BBX 9 7 0 0
BITMAP
F780
6300
6300
7F00
6300
6300
F780
ENDCHAR
STARTCHAR 043E
ENCODING 1086
SWIDTH 523 0
DWIDTH 8 0
BBX 6 7 1 0
BITMAP
78
CC
CC
CC
CC
CC
78
ENDCHAR
STARTCHAR 043F
ENCODING 1087
SWIDTH 589 0
DWIDTH 9 0
BBX 9 7 0 0
BITMAP
FF80
6300
6300
6300
6300
6300
F780
ENDCHAR
STARTCHAR 0440
ENCODING 1088
SWIDTH 523 0
DWIDTH 8 0
BBX 7 10 0 -3
BITMAP
FC
66
66
66
66
66
7C
60
60
F0
ENDCHAR
STARTCHAR 0441
ENCODING 1089
SWIDTH 458 0
DWIDTH 7 0
BBX 5 7 1 0
BITMAP
78
C8
C0
C0
C0
C0
78
ENDCHAR
STARTCHAR 0442
ENCODING 1090
SWIDTH 523 0
DWIDTH 8 0
BBX 6 7 1 0
BITMAP
FC
B4
30
30
30
30
78
ENDCHAR
STARTCHAR 0443
ENCODING 1091
SWIDTH 458 0
DWIDTH 7 0
BBX 7 10 0 -3
BITMAP
76
62
34
34
3C
18
18
10
50
60
ENDCHAR
STARTCHAR 0444
ENCODING 1092
SWIDTH 654 0
DWIDTH 10 0
BBX 8 13 1 -3
BITMAP
38
18
18
7E
DB
DB
DB
DB
DB
7E
18
18
3C
ENDCHAR
STARTCHAR 0445
ENCODING 1093
SWIDTH 523 0
DWIDTH 8 0
BBX 8 7 0 0
BITMAP
7B
31
1A
0C
16
23
77
ENDCHAR
STARTCHAR 0446
ENCODING 1094
SWIDTH 589 0
DWIDTH 9 0
BBX 9 10 0 -3
BITMAP
F780
6300
6300
6300
6300
6300
FF80
0180
0180
0080
ENDCHAR
STARTCHAR 0447
ENCODING 1095
SWIDTH 523 0
DWIDTH 8 0
BBX 8 7 0 0
BITMAP
EF
66
66
66
3E
06
0F
ENDCHAR
STARTCHAR 0448
ENCODING 1096
SWIDTH 785 0
DWIDTH 12 0
BBX 12 7 0 0
BITMAP
F6F0
6660
6660
6660
6660
6660
FFF0
ENDCHAR
STARTCHAR 0449
ENCODING 1097
SWIDTH 785 0
DWIDTH 12 0
BBX 12 10 0 -3
BITMAP
F6F0
6660
6660
6660
6660
6660
FFF0
0030
0030
0010
ENDCHAR
STARTCHAR 044A
ENCODING 1098
SWIDTH 589 0
DWIDTH 9 0
BBX 8 7 0 0
BITMAP
F8
B0
30
3E
33
33
7E
ENDCHAR
STARTCHAR 044B
ENCODING 1099
SWIDTH 785 0
DWIDTH 12 0
BBX 12 7 0 0
BITMAP
F0F0
6060
6060
7C60
6660
6660
FCF0
ENDCHAR
STARTCHAR 044C
ENCODING 1100
SWIDTH 523 0
DWIDTH 8 0
BBX 7 7 0 0
BITMAP
F0
60
60
7C
66
66
FC
ENDCHAR
STARTCHAR 044D
ENCODING 1101
SWIDTH 392 0
DWIDTH 6 0
BBX 5 7 0 0
BITMAP
F0
98
18
78
18
18
F0
ENDCHAR
STARTCHAR 044E
ENCODING 1102
SWIDTH 720 0
DWIDTH 11 0
BBX 10 7 0 0
BITMAP
F780
6CC0
6CC0
7CC0
6CC0
6CC0
F780
ENDCHAR
STARTCHAR 044F
ENCODING 1103
SWIDTH 523 0
DWIDTH 8 0
BBX 8 7 0 0
BITMAP
3F
66
66
3E
36
66
EF
ENDCHAR
STARTCHAR 0451
ENCODING 1105
SWIDTH 523 0
DWIDTH 8 0
BBX 6 10 1 0
BITMAP
6C
6C
00
78
CC
CC
FC
C0
C0
7C
ENDCHAR
STARTCHAR 0452
ENCODING 1106
SWIDTH 523 0
DWIDTH 8 0
BBX 7 13 0 -3
BITMAP
70
7C
30
3E
32
32
32
32
32
7A
02
0A
0E
ENDCHAR
STARTCHAR 0453
ENCODING 1107
SWIDTH 458 0
DWIDTH 7 0
BBX 6 10 0 0
BITMAP
18
20
00
FC
64
60
60
60
60
F0
ENDCHAR
STARTCHAR 0454
ENCODING 1108
SWIDTH 392 0
DWIDTH 6 0
BBX 5 7 1 0
BITMAP
78
C8
C0
F0
C0
C0
78
ENDCHAR
STARTCHAR 0455
ENCODING 1109
SWIDTH 458 0
DWIDTH 7 0
BBX 5 7 1 0
BITMAP
78
C8
E0
F0
38
98
F0
ENDCHAR
STARTCHAR 0456
ENCODING 1110
SWIDTH 261 0
DWIDTH 4 0
BBX 4 10 0 0
BITMAP
60
60
00
E0
60
60
60
60
60
F0
ENDCHAR
STARTCHAR 0457
ENCODING 1111
SWIDTH 261 0
DWIDTH 4 0
BBX 5 10 0 0
BITMAP
D8
D8
00
E0
60
60
60
60
60
F0
ENDCHAR
STARTCHAR 0458
ENCODING 1112
SWIDTH 261 0
DWIDTH 4 0
BBX 4 13 -1 -3
BITMAP
30
30
00
70
30
30
30
30
30
30
30
B0
E0
ENDCHAR
STARTCHAR 0459
ENCODING 1113
SWIDTH 785 0
DWIDTH 12 0
BBX 11 7 0 0
BITMAP
3F00
2600
1600
27C0
2660
A660
CFC0
ENDCHAR
STARTCHAR 045A
ENCODING 1114
SWIDTH 785 0
DWIDTH 12 0
BBX 11 7 0 0
BITMAP
F700
6600
6600
7FC0
6660
6660
F7C0
ENDCHAR
STARTCHAR 045B
ENCODING 1115
SWIDTH 523 0
DWIDTH 8 0
BBX 8 10 0 0
BITMAP
70
7C
30
3E
33
33
33
33
33
7B
ENDCHAR
STARTCHAR 045C
ENCODING 1116
SWIDTH 589 0
DWIDTH 9 0
BBX 9 10 0 0
BITMAP
0600
0800
0000
F700
6400
6800
7C00
6600
6300
F380
ENDCHAR
STARTCHAR 045E
ENCODING 1118
SWIDTH 458 0
DWIDTH 7 0
BBX 7 13 0 -3
BITMAP
66
3C
00
76
62
34
34
3C
18
18
10
50
60
ENDCHAR
STARTCHAR 045F
ENCODING 1119
SWIDTH 589 0
DWIDTH 9 0
BBX 9 10 0 -3
BITMAP
F780
6300
6300
6300
6300
6300
FF80
1800
1800
1800
ENDCHAR
STARTCHAR 0490
ENCODING 1168
SWIDTH 523 0
DWIDTH 8 0
BBX 5 11 2 0
BITMAP
08
F8
60
60
60
60
60
60
60
60
F8
ENDCHAR
STARTCHAR 0491
ENCODING 1169
SWIDTH 392 0
DWIDTH 6 0
BBX 5 9 0 0
BITMAP
08
08
F8
60
60
60
60
60
F0
ENDCHAR
STARTCHAR 1E80
ENCODING 7808
SWIDTH 916 0
DWIDTH 14 0
BBX 14 13 0 0
BITMAP
0300
0080
0000
F01C
6108
3110
3390
3390
1DA0
1CE0
1CE0
0840
0840
ENDCHAR
STARTCHAR 1E81
ENCODING 7809
SWIDTH 654 0
DWIDTH 10 0
BBX 10 10 0 0
BITMAP
1800
0400
0000
F1C0
6480
6680
6E80
3700
3300
3300
ENDCHAR
STARTCHAR 1E82
ENCODING 7810
SWIDTH 916 0
DWIDTH 14 0
BBX 14 13 0 0
BITMAP
00C0
0100
0000
F01C
6108
3110
3390
3390
1DA0
1CE0
1CE0
0840
0840
ENDCHAR
STARTCHAR 1E83
ENCODING 7811
SWIDTH 654 0
DWIDTH 10 0
BBX 10 10 0 0
BITMAP
0300
0400
0000
F1C0
6480
6680
6E80
3700
3300
3300
ENDCHAR
STARTCHAR 1E84
ENCODING 7812
SWIDTH 916 0
DWIDTH 14 0
BBX 14 13 0 0
BITMAP
06C0
06C0
0000
F01C
6108
3110
3390
3390
1DA0
1CE0
1CE0
0840
0840
ENDCHAR
STARTCHAR 1E85
ENCODING 7813
SWIDTH 654 0
DWIDTH 10 0
BBX 10 10 0 0
BITMAP
1B00
1B00
0000
F1C0
6480
6680
6E80
3700
3300
3300
ENDCHAR
STARTCHAR 1EF2
ENCODING 7922
SWIDTH 654 0
DWIDTH 10 0
BBX 10 13 0 0
BITMAP
1800
0400
0000
F1C0
6080
3100
3200
1A00
0C00
0C00
0C00
0C00
3F00
ENDCHAR
STARTCHAR 1EF3
ENCODING 7923
SWIDTH 458 0
DWIDTH 7 0
BBX 7 13 0 -3
BITMAP
30
08
00
76
62
34
34
3C
18
18
10
50
60
ENDCHAR
STARTCHAR 2013
ENCODING 8211
SWIDTH 523 0
DWIDTH 8 0
BBX 8 1 0 3
BITMAP
FF
ENDCHAR
STARTCHAR 2014
ENCODING 8212
SWIDTH 981 0
DWIDTH 15 0
BBX 15 1 0 3
BITMAP
FFFE
ENDCHAR
STARTCHAR 2015
ENCODING 8213
SWIDTH 981 0
DWIDTH 15 0
BBX 15 1 0 3
BITMAP
FFFE
ENDCHAR
STARTCHAR 2017
ENCODING 8215
SWIDTH 523 0
DWIDTH 8 0
BBX 8 3 0 -4
BITMAP
FF
00
FF
ENDCHAR
STARTCHAR 2018
ENCODING 8216
SWIDTH 327 0
DWIDTH 5 0
BBX 2 4 2 6
BITMAP
40
80
C0
C0
ENDCHAR
STARTCHAR 2019
ENCODING 8217
SWIDTH 327 0
DWIDTH 5 0
BBX 2 4 1 6
BITMAP
C0
C0
40
80
ENDCHAR
STARTCHAR 201A
ENCODING 8218
SWIDTH 327 0
DWIDTH 5 0
BBX 2 4 1 -2
BITMAP
C0
C0
40
80
ENDCHAR
STARTCHAR 201B
ENCODING 8219
SWIDTH 327 0
DWIDTH 5 0
BBX 2 4 1 6
BITMAP
C0
C0
80
40
ENDCHAR
STARTCHAR 201C
ENCODING 8220
SWIDTH 523 0
DWIDTH 8 0
BBX 5 4 2 6
BITMAP
48
90
D8
D8
ENDCHAR
STARTCHAR 201D
ENCODING 8221
SWIDTH 523 0
DWIDTH 8 0
BBX 5 4 1 6
BITMAP
D8
D8
48
90
ENDCHAR
STARTCHAR 201E
ENCODING 8222
SWIDTH 523 0
DWIDTH 8 0
BBX 5 4 1 -2
BITMAP
D8
D8
48
90
ENDCHAR
STARTCHAR 2020
ENCODING 8224
SWIDTH 589 0
DWIDTH 9 0
BBX 6 12 1 -2
BITMAP
30
30
FC
30
30
30
30
30
30
30
30
30
ENDCHAR
STARTCHAR 2021
ENCODING 8225
SWIDTH 589 0
DWIDTH 9 0
BBX 6 12 1 -2
BITMAP
30
30
FC
30
30
30
30
30
30
FC
30
30
ENDCHAR
STARTCHAR 2022
ENCODING 8226
SWIDTH 392 0
DWIDTH 6 0
BBX 4 4 1 3
BITMAP
60
F0
F0
60
ENDCHAR
STARTCHAR 2026
ENCODING 8230
SWIDTH 981 0
DWIDTH 15 0
BBX 12 2 1 0
BITMAP
C630
C630
ENDCHAR
STARTCHAR 2030
ENCODING 8240
SWIDTH 1047 0
DWIDTH 16 0
BBX 16 10 0 0
BITMAP
7040
D880
D900
DA00
7400
05CE
0B7B
137B
237B
41CE
ENDCHAR
STARTCHAR 2032
ENCODING 8242
SWIDTH 261 0
DWIDTH 4 0
BBX 2 4 1 6
BITMAP
C0
C0
80
80
ENDCHAR
STARTCHAR 2033
ENCODING 8243
SWIDTH 523 0
DWIDTH 8 0
BBX 5 4 2 6
BITMAP
D8
D8
90
90
ENDCHAR
STARTCHAR 2039
ENCODING 8249
SWIDTH 327 0
DWIDTH 5 0
BBX 3 6 1 0
BITMAP
20
60
C0
C0
40
20
ENDCHAR
STARTCHAR 203A
ENCODING 8250
SWIDTH 327 0
DWIDTH 5 0
BBX 3 6 1 0
BITMAP
80
40
60
60
C0
80
ENDCHAR
STARTCHAR 203C
ENCODING 8252
SWIDTH 589 0
DWIDTH 9 0
BBX 6 10 1 0
BITMAP
CC
CC
CC
CC
CC
CC
CC
00
CC
CC
ENDCHAR
STARTCHAR 203E
ENCODING 8254
SWIDTH 327 0
DWIDTH 5 0
BBX 5 1 0 11
BITMAP
F8
ENDCHAR
STARTCHAR 2044
ENCODING 8260
SWIDTH 196 0
DWIDTH 3 0
BBX 8 10 -3 0
BITMAP
01
02
04
04
08
10
20
20
40
80
ENDCHAR
STARTCHAR 207F
ENCODING 8319
SWIDTH 327 0
DWIDTH 5 0
BBX 3 5 1 4
BITMAP
60
40
40
40
40
ENDCHAR
STARTCHAR 20A3
ENCODING 8355
SWIDTH 523 0
DWIDTH 8 0
BBX 6 10 1 0
BITMAP
7C
30
30
34
3C
34
30
7C
30
78
ENDCHAR
STARTCHAR 20A4
ENCODING 8356
SWIDTH 523 0
DWIDTH 8 0
BBX 6 10 1 0
BITMAP
3C
60
60
60
78
30
78
10
3C
7C
ENDCHAR
STARTCHAR 20A7
ENCODING 8359
SWIDTH 981 0
DWIDTH 15 0
BBX 15 10 0 0
BITMAP
FC00
6600
6600
6680
6780
7FDE
61B0
619C
6186
F1FC
ENDCHAR
STARTCHAR 20AC
ENCODING 8364
SWIDTH 523 0
DWIDTH 8 0
BBX 7 10 0 0
BITMAP
1E
32
60
F8
60
F8
60
62
32
1E
ENDCHAR
STARTCHAR 2105
ENCODING 8453
SWIDTH 850 0
DWIDTH 13 0
BBX 11 10 1 0
BITMAP
7080
D100
C200
C200
7400
05C0
0B60
1360
1360
21C0
ENDCHAR
STARTCHAR 2113
ENCODING 8467
SWIDTH 392 0
DWIDTH 6 0
BBX 6 10 0 0
BITMAP
18
24
24
24
28
30
60
20
20
1C
ENDCHAR
STARTCHAR 2116
ENCODING 8470
SWIDTH 981 0
DWIDTH 15 0
BBX 13 10 1 0
BITMAP
71C0
3880
3880
2C80
2698
26A0
23A0
2198
2180
70B8
ENDCHAR
STARTCHAR 2122
ENCODING 8482
SWIDTH 981 0
DWIDTH 15 0
BBX 14 6 0 4
BITMAP
FF1C
AB18
22A8
22A8
2248
775C
ENDCHAR
STARTCHAR 2126
ENCODING 8486
SWIDTH 850 0
DWIDTH 13 0
BBX 11 10 1 0
BITMAP
3F80
60C0
C060
C060
C060
60C0
3B80
8A20
FBE0
FBE0
ENDCHAR
STARTCHAR 212E
ENCODING 8494
SWIDTH 589 0
DWIDTH 9 0
BBX 8 8 1 0
BITMAP
3C
42
C3
FF
C0
C0
42
3C
ENDCHAR
STARTCHAR 215B
ENCODING 8539
SWIDTH 720 0
DWIDTH 11 0
BBX 8 10 2 0
BITMAP
C1
42
44
44
4B
F4
23
24
44
83
ENDCHAR
STARTCHAR 215C
ENCODING 8540
SWIDTH 720 0
DWIDTH 11 0
BBX 10 10 0 0
BITMAP
E080
1100
6200
1200
9580
EA40
1180
1240
2240
4180
ENDCHAR
STARTCHAR 215D
ENCODING 8541
SWIDTH 720 0
DWIDTH 11 0
BBX 10 10 0 0
BITMAP
F080
8100
E200
1200
9580
EA40
1180
1240
2240
4180
ENDCHAR
STARTCHAR 215E
ENCODING 8542
SWIDTH 720 0
DWIDTH 11 0
BBX 10 10 0 0
BITMAP
F880
9100
1200
2200
2580
4A40
1180
1240
2240
4180
ENDCHAR
STARTCHAR 2190
ENCODING 8592
SWIDTH 981 0
DWIDTH 15 0
BBX 9 3 3 0
BITMAP
4000
FF80
4000
ENDCHAR
STARTCHAR 2191
ENCODING 8593
SWIDTH 523 0
DWIDTH 8 0
BBX 3 8 2 -1
BITMAP
40
E0
40
40
40
40
40
40
ENDCHAR
STARTCHAR 2192
ENCODING 8594
SWIDTH 981 0
DWIDTH 15 0
BBX 9 3 3 0
BITMAP
0100
FF80
0100
ENDCHAR
STARTCHAR 2193
ENCODING 8595
SWIDTH 523 0
DWIDTH 8 0
BBX 3 8 2 -1
BITMAP
40
40
40
40
40
40
E0
40
ENDCHAR
STARTCHAR 2194
ENCODING 8596
SWIDTH 981 0
DWIDTH 15 0
BBX 9 3 3 0
BITMAP
4100
FF80
4100
ENDCHAR
STARTCHAR 2195
ENCODING 8597
SWIDTH 523 0
DWIDTH 8 0
BBX 3 8 2 -1
BITMAP
40
E0
40
40
40
40
E0
40
ENDCHAR
STARTCHAR 21A8
ENCODING 8616
SWIDTH 523 0
DWIDTH 8 0
BBX 3 10 2 -2
BITMAP
40
E0
40
40
40
40
E0
40
00
60
ENDCHAR
STARTCHAR 2202
ENCODING 8706
SWIDTH 458 0
DWIDTH 7 0
BBX 6 11 1 0
BITMAP
38
0C
04
04
34
6C
C4
C4
C8
C8
70
ENDCHAR
STARTCHAR 2206
ENCODING 8710
SWIDTH 654 0
DWIDTH 10 0
BBX 8 10 1 0
BITMAP
18
18
2C
2C
2C
46
46
46
83
FF
ENDCHAR
STARTCHAR 220F
ENCODING 8719
SWIDTH 785 0
DWIDTH 12 0
BBX 10 13 1 -3
BITMAP
7FC0
30C0
30C0
30C0
30C0
30C0
30C0
30C0
30C0
30C0
30C0
30C0
79C0
ENDCHAR
STARTCHAR 2211
ENCODING 8721
SWIDTH 720 0
DWIDTH 11 0
BBX 9 13 1 -3
BITMAP
FF00
E100
7100
3000
1800
1800
0800
1000
1000
2080
4080
FF80
FF80
ENDCHAR
STARTCHAR 2212
ENCODING 8722
SWIDTH 589 0
DWIDTH 9 0
BBX 7 1 1 5
BITMAP
FE
ENDCHAR
STARTCHAR 2215
ENCODING 8725
SWIDTH 196 0
DWIDTH 3 0
BBX 8 10 -3 0
BITMAP
01
02
04
04
08
10
20
20
40
80
ENDCHAR
STARTCHAR 2219
ENCODING 8729
SWIDTH 196 0
DWIDTH 3 0
BBX 2 2 0 4
BITMAP
C0
C0
ENDCHAR
STARTCHAR 221A
ENCODING 8730
SWIDTH 589 0
DWIDTH 9 0
BBX 8 12 1 0
BITMAP
01
02
02
02
04
C4
44
28
28
28
30
10
ENDCHAR
STARTCHAR 221E
ENCODING 8734
SWIDTH 720 0
DWIDTH 11 0
BBX 11 6 0 0
BITMAP
71C0
CA60
8420
8420
8A20
71C0
ENDCHAR
STARTCHAR 221F
ENCODING 8735
SWIDTH 981 0
DWIDTH 15 0
BBX 8 9 4 0
BITMAP
80
80
80
80
80
80
80
80
FF
ENDCHAR
STARTCHAR 2229
ENCODING 8745
SWIDTH 720 0
DWIDTH 11 0
BBX 7 8 2 -1
BITMAP
10
6C
84
82
82
82
82
82
ENDCHAR
STARTCHAR 222B
ENCODING 8747
SWIDTH 196 0
DWIDTH 3 0
BBX 5 14 -1 -4
BITMAP
08
10
10
10
10
10
10
10
10
10
10
10
10
60
ENDCHAR
STARTCHAR 2248
ENCODING 8776
SWIDTH 523 0
DWIDTH 8 0
BBX 7 6 0 2
BITMAP
62
92
8C
62
92
8C
ENDCHAR
STARTCHAR 2260
ENCODING 8800
SWIDTH 523 0
DWIDTH 8 0
BBX 6 8 1 1
BITMAP
04
08
FC
10
20
FC
40
80
ENDCHAR
STARTCHAR 2261
ENCODING 8801
SWIDTH 589 0
DWIDTH 9 0
BBX 7 6 1 1
BITMAP
7E
00
7E
7E
00
7E
ENDCHAR
STARTCHAR 2264
ENCODING 8804
SWIDTH 523 0
DWIDTH 8 0
BBX 6 9 1 0
BITMAP
04
18
60
80
60
18
04
00
FC
ENDCHAR
STARTCHAR 2265
ENCODING 8805
SWIDTH 523 0
DWIDTH 8 0
BBX 7 9 1 0
BITMAP
80
60
18
06
18
60
80
00
FE
ENDCHAR
STARTCHAR 2302
ENCODING 8962
SWIDTH 589 0
DWIDTH 9 0
BBX 7 8 1 0
BITMAP
30
28
44
82
82
82
82
FE
ENDCHAR
STARTCHAR 2310
ENCODING 8976
SWIDTH 589 0
DWIDTH 9 0
BBX 7 5 1 1
BITMAP
7E
7E
40
40
40
ENDCHAR
STARTCHAR 2320
ENCODING 8992
SWIDTH 589 0
DWIDTH 9 0
BBX 3 17 4 -5
BITMAP
E0
80
80
80
80
80
80
80
80
80
80
80
80
80
80
80
80
ENDCHAR
STARTCHAR 2321
ENCODING 8993
SWIDTH 589 0
DWIDTH 9 0
BBX 2 2 3 -5
BITMAP
80
40
ENDCHAR
STARTCHAR 2500
ENCODING 9472
SWIDTH 720 0
DWIDTH 11 0
BBX 11 1 0 4
BITMAP
7FE0
ENDCHAR
STARTCHAR 2502
ENCODING 9474
SWIDTH 720 0
DWIDTH 11 0
BBX 0 0 0 0
BITMAP
ENDCHAR
STARTCHAR 250C
ENCODING 9484
SWIDTH 720 0
DWIDTH 11 0
BBX 6 10 5 -5
BITMAP
7C
40
40
40
40
40
40
40
40
40
ENDCHAR
STARTCHAR 2510
ENCODING 9488
SWIDTH 720 0
DWIDTH 11 0
BBX 5 1 1 4
BITMAP
F8
ENDCHAR
STARTCHAR 2514
ENCODING 9492
SWIDTH 720 0
DWIDTH 11 0
BBX 6 10 5 4
BITMAP
40
40
40
40
40
40
40
40
40
7C
ENDCHAR
STARTCHAR 2518
ENCODING 9496
SWIDTH 720 0
DWIDTH 11 0
BBX 5 1 1 4
BITMAP
F8
ENDCHAR
STARTCHAR 251C
ENCODING 9500
SWIDTH 720 0
DWIDTH 11 0
BBX 6 19 5 -5
BITMAP
40
40
40
40
40
40
40
40
40
7C
40
40
40
40
40
40
40
40
40
ENDCHAR
STARTCHAR 2524
ENCODING 9508
SWIDTH 720 0
DWIDTH 11 0
BBX 5 1 1 4
BITMAP
F8
ENDCHAR
STARTCHAR 252C
ENCODING 9516
SWIDTH 720 0
DWIDTH 11 0
BBX 11 10 0 -5
BITMAP
7FE0
0200
0200
0200
0200
0200
0200
0200
0200
0200
ENDCHAR
STARTCHAR 2534
ENCODING 9524
SWIDTH 720 0
DWIDTH 11 0
BBX 11 10 0 4
BITMAP
0200
0200
0200
0200
0200
0200
0200
0200
0200
7FE0
ENDCHAR
STARTCHAR 253C
ENCODING 9532
SWIDTH 720 0
DWIDTH 11 0
BBX 11 19 0 -5
BITMAP
0200
0200
0200
0200
0200
0200
0200
0200
0200
7FE0
0200
0200
0200
0200
0200
0200
0200
0200
0200
ENDCHAR
STARTCHAR 2550
ENCODING 9552
SWIDTH 720 0
DWIDTH 11 0
BBX 11 3 0 2
BITMAP
7FE0
0000
7FE0
ENDCHAR
STARTCHAR 2551
ENCODING 9553
SWIDTH 720 0
DWIDTH 11 0
BBX 4 19 3 -5
BITMAP
D0
D0
D0
D0
D0
D0
D0
D0
D0
D0
D0
D0
D0
D0
D0
D0
D0
D0
D0
ENDCHAR
STARTCHAR 2552
ENCODING 9554
SWIDTH 720 0
DWIDTH 11 0
BBX 6 11 5 -5
BITMAP
7C
40
7C
40
40
40
40
40
40
40
40
ENDCHAR
STARTCHAR 2553
ENCODING 9555
SWIDTH 720 0
DWIDTH 11 0
BBX 8 10 3 -5
BITMAP
FF
D0
D0
D0
D0
D0
D0
D0
D0
D0
ENDCHAR
STARTCHAR 2554
ENCODING 9556
SWIDTH 720 0
DWIDTH 11 0
BBX 8 11 3 -5
BITMAP
FF
C0
DF
D0
D0
D0
D0
D0
D0
D0
D0
ENDCHAR
STARTCHAR 2555
ENCODING 9557
SWIDTH 720 0
DWIDTH 11 0
BBX 5 3 1 3
BITMAP
F8
00
F8
ENDCHAR
STARTCHAR 2556
ENCODING 9558
SWIDTH 720 0
DWIDTH 11 0
BBX 7 10 0 -5
BITMAP
7E
0C
0C
0C
0C
0C
0C
0C
0C
0C
ENDCHAR
STARTCHAR 2557
ENCODING 9559
SWIDTH 720 0
DWIDTH 11 0
BBX 7 11 0 -5
BITMAP
7E
00
7C
0C
0C
0C
0C
0C
0C
0C
0C
ENDCHAR
STARTCHAR 2558
ENCODING 9560
SWIDTH 720 0
DWIDTH 11 0
BBX 6 11 5 2
BITMAP
40
40
40
40
40
40
40
40
7C
40
7C
ENDCHAR
STARTCHAR 2559
ENCODING 9561
SWIDTH 720 0
DWIDTH 11 0
BBX 8 10 3 4
BITMAP
D0
D0
D0
D0
D0
D0
D0
D0
D0
FF
ENDCHAR
STARTCHAR 255A
ENCODING 9562
SWIDTH 720 0
DWIDTH 11 0
BBX 8 11 3 2
BITMAP
D0
D0
D0
D0
D0
D0
D0
D0
DF
C0
FF
ENDCHAR
STARTCHAR 255B
ENCODING 9563
SWIDTH 720 0
DWIDTH 11 0
BBX 5 3 1 2
BITMAP
F8
00
F8
ENDCHAR
STARTCHAR 255C
ENCODING 9564
SWIDTH 720 0
DWIDTH 11 0
BBX 7 10 0 4
BITMAP
0C
0C
0C
0C
0C
0C
0C
0C
0C
7E
ENDCHAR
STARTCHAR 255D
ENCODING 9565
SWIDTH 720 0
DWIDTH 11 0
BBX 7 11 0 2
BITMAP
0C
0C
0C
0C
0C
0C
0C
0C
7C
00
7E
ENDCHAR
STARTCHAR 255E
ENCODING 9566
SWIDTH 720 0
DWIDTH 11 0
BBX 6 19 5 -5
BITMAP
40
40
40
40
40
40
40
40
7C
40
7C
40
40
40
40
40
40
40
40
ENDCHAR
STARTCHAR 255F
ENCODING 9567
SWIDTH 720 0
DWIDTH 11 0
BBX 8 19 3 -5
BITMAP
D0
D0
D0
D0
D0
D0
D0
D0
D0
DF
D0
D0
D0
D0
D0
D0
D0
D0
D0
ENDCHAR
STARTCHAR 2560
ENCODING 9568
SWIDTH 720 0
DWIDTH 11 0
BBX 8 19 3 -5
BITMAP
D0
D0
D0
D0
D0
D0
D0
D0
DF
C0
DF
D0
D0
D0
D0
D0
D0
D0
D0
ENDCHAR
STARTCHAR 2561
ENCODING 9569
SWIDTH 720 0
DWIDTH 11 0
BBX 5 3 1 3
BITMAP
F8
00
F8
ENDCHAR
STARTCHAR 2562
ENCODING 9570
SWIDTH 720 0
DWIDTH 11 0
BBX 7 19 0 -5
BITMAP
0C
0C
0C
0C
0C
0C
0C
0C
0C
7C
0C
0C
0C
0C
0C
0C
0C
0C
0C
ENDCHAR
STARTCHAR 2563
ENCODING 9571
SWIDTH 720 0
DWIDTH 11 0
BBX 7 19 0 -5
BITMAP
0C
0C
0C
0C
0C
0C
0C
0C
7C
00
7C
0C
0C
0C
0C
0C
0C
0C
0C
ENDCHAR
STARTCHAR 2564
ENCODING 9572
SWIDTH 720 0
DWIDTH 11 0
BBX 11 11 0 -5
BITMAP
7FE0
0000
7FE0
0200
0200
0200
0200
0200
0200
0200
0200
ENDCHAR
STARTCHAR 2565
ENCODING 9573
SWIDTH 720 0
DWIDTH 11 0
BBX 11 10 0 -5
BITMAP
7FE0
0D00
0D00
0D00
0D00
0D00
0D00
0D00
0D00
0D00
ENDCHAR
STARTCHAR 2566
ENCODING 9574
SWIDTH 720 0
DWIDTH 11 0
BBX 11 11 0 -5
BITMAP
7FE0
0000
7DE0
0D00
0D00
0D00
0D00
0D00
0D00
0D00
0D00
ENDCHAR
STARTCHAR 2567
ENCODING 9575
SWIDTH 720 0
DWIDTH 11 0
BBX 11 11 0 2
BITMAP
0200
0200
0200
0200
0200
0200
0200
0200
7FE0
0000
7FE0
ENDCHAR
STARTCHAR 2568
ENCODING 9576
SWIDTH 720 0
DWIDTH 11 0
BBX 11 10 0 4
BITMAP
0D00
0D00
0D00
0D00
0D00
0D00
0D00
0D00
0D00
7FE0
ENDCHAR
STARTCHAR 2569
ENCODING 9577
SWIDTH 720 0
DWIDTH 11 0
BBX 11 11 0 2
BITMAP
0D00
0D00
0D00
0D00
0D00
0D00
0D00
0D00
7DE0
0000
7FE0
ENDCHAR
STARTCHAR 256A
ENCODING 9578
SWIDTH 720 0
DWIDTH 11 0
BBX 11 19 0 -5
BITMAP
0200
0200
0200
0200
0200
0200
0200
0200
7FE0
0200
7FE0
0200
0200
0200
0200
0200
0200
0200
0200
ENDCHAR
STARTCHAR 256B
ENCODING 9579
SWIDTH 720 0
DWIDTH 11 0
BBX 11 19 0 -5
BITMAP
0D00
0D00
0D00
0D00
0D00
0D00
0D00
0D00
0D00
7FE0
0D00
0D00
0D00
0D00
0D00
0D00
0D00
0D00
0D00
ENDCHAR
STARTCHAR 256C
ENCODING 9580
SWIDTH 720 0
DWIDTH 11 0
BBX 11 19 0 -5
BITMAP
0D00
0D00
0D00
0D00
0D00
0D00
0D00
0D00
7DE0
0000
7DE0
0D00
0D00
0D00
0D00
0D00
0D00
0D00
0D00
ENDCHAR
STARTCHAR 2580
ENCODING 9600
SWIDTH 720 0
DWIDTH 11 0
BBX 11 9 0 4
BITMAP
FFE0
FFE0
FFE0
FFE0
FFE0
FFE0
FFE0
FFE0
FFE0
ENDCHAR
STARTCHAR 2584
ENCODING 9604
SWIDTH 720 0
DWIDTH 11 0
BBX 11 10 0 -5
BITMAP
FFE0
FFE0
FFE0
FFE0
FFE0
FFE0
FFE0
FFE0
FFE0
FFE0
ENDCHAR
STARTCHAR 2588
ENCODING 9608
SWIDTH 720 0
DWIDTH 11 0
BBX 11 19 0 -5
BITMAP
FFE0
FFE0
FFE0
FFE0
FFE0
FFE0
FFE0
FFE0
FFE0
FFE0
FFE0
FFE0
FFE0
FFE0
FFE0
FFE0
FFE0
FFE0
FFE0
ENDCHAR
STARTCHAR 258C
ENCODING 9612
SWIDTH 720 0
DWIDTH 11 0
BBX 5 19 0 -5
BITMAP
F8
F8
F8
F8
F8
F8
F8
F8
F8
F8
F8
F8
F8
F8
F8
F8
F8
F8
F8
ENDCHAR
STARTCHAR 2590
ENCODING 9616
SWIDTH 720 0
DWIDTH 11 0
BBX 6 19 5 -5
BITMAP
FC
FC
FC
FC
FC
FC
FC
FC
FC
FC
FC
FC
FC
FC
FC
FC
FC
FC
FC
ENDCHAR
STARTCHAR 2591
ENCODING 9617
SWIDTH 720 0
DWIDTH 11 0
BBX 8 15 2 -4
BITMAP
49
92
00
49
92
00
00
92
49
00
92
49
00
00
49
ENDCHAR
STARTCHAR 2592
ENCODING 9618
SWIDTH 720 0
DWIDTH 11 0
BBX 11 15 0 -4
BITMAP
9240
6DA0
0000
9240
6DA0
0000
0000
6DA0
9240
0000
6DA0
9240
0000
0000
9240
ENDCHAR
STARTCHAR 2593
ENCODING 9619
SWIDTH 720 0
DWIDTH 11 0
BBX 11 17 0 -5
BITMAP
FFE0
DAC0
6DA0
FFE0
DAE0
6DA0
FFE0
FFE0
6DA0
DAC0
FFE0
6DA0
DAC0
FFE0
FFE0
DAC0
FFE0
ENDCHAR
STARTCHAR 25A0
ENCODING 9632
SWIDTH 589 0
DWIDTH 9 0
BBX 7 7 1 0
BITMAP
7E
7E
7E
7E
7E
7E
7E
ENDCHAR
STARTCHAR 25A1
ENCODING 9633
SWIDTH 589 0
DWIDTH 9 0
BBX 9 9 0 0
BITMAP
FF80
8080
8080
8080
8080
8080
8080
8080
FF80
ENDCHAR
STARTCHAR 25AA
ENCODING 9642
SWIDTH 327 0
DWIDTH 5 0
BBX 4 4 1 3
BITMAP
F0
F0
F0
F0
ENDCHAR
STARTCHAR 25AB
ENCODING 9643
SWIDTH 327 0
DWIDTH 5 0
BBX 4 4 1 3
BITMAP
F0
90
90
F0
ENDCHAR
STARTCHAR 25AC
ENCODING 9644
SWIDTH 981 0
DWIDTH 15 0
BBX 15 5 0 0
BITMAP
FFFE
FFFE
FFFE
FFFE
FFFE
ENDCHAR
STARTCHAR 25B2
ENCODING 9650
SWIDTH 981 0
DWIDTH 15 0
BBX 9 9 3 0
BITMAP
0800
0800
1C00
1C00
3E00
3E00
7F00
7F00
FF80
ENDCHAR
STARTCHAR 25BA
ENCODING 9658
SWIDTH 981 0
DWIDTH 15 0
BBX 8 8 4 -1
BITMAP
C0
F0
FC
FF
FE
F8
E0
80
ENDCHAR
STARTCHAR 25BC
ENCODING 9660
SWIDTH 981 0
DWIDTH 15 0
BBX 9 9 3 -1
BITMAP
FF80
7F00
7F00
3E00
3E00
1C00
1C00
0800
0800
ENDCHAR
STARTCHAR 25C4
ENCODING 9668
SWIDTH 981 0
DWIDTH 15 0
BBX 8 7 4 0
BITMAP
03
0F
3F
FF
3F
0F
03
ENDCHAR
STARTCHAR 25CA
ENCODING 9674
SWIDTH 458 0
DWIDTH 7 0
BBX 5 10 1 0
BITMAP
20
60
50
50
88
88
50
50
60
20
ENDCHAR
STARTCHAR 25CB
ENCODING 9675
SWIDTH 589 0
DWIDTH 9 0
BBX 7 7 1 1
BITMAP
38
44
82
82
82
44
38
ENDCHAR
STARTCHAR 25CF
ENCODING 9679
SWIDTH 589 0
DWIDTH 9 0
BBX 6 6 1 1
BITMAP
78
FC
FC
FC
FC
78
ENDCHAR
STARTCHAR 25D8
ENCODING 9688
SWIDTH 589 0
DWIDTH 9 0
BBX 9 8 0 0
BITMAP
FF80
C180
C180
8080
8080
C180
E380
FF80
ENDCHAR
STARTCHAR 25D9
ENCODING 9689
SWIDTH 589 0
DWIDTH 9 0
BBX 9 8 0 0
BITMAP
FF80
DD80
FF80
BE80
BE80
FF80
E380
FF80
ENDCHAR
STARTCHAR 25E6
ENCODING 9702
SWIDTH 327 0
DWIDTH 5 0
BBX 4 4 1 2
BITMAP
60
90
90
60
ENDCHAR
STARTCHAR 263A
ENCODING 9786
SWIDTH 981 0
DWIDTH 15 0
BBX 9 10 3 -1
BITMAP
1C00
2300
4080
A280
8080
8080
8280
5D00
3600
0800
ENDCHAR
STARTCHAR 263B
ENCODING 9787
SWIDTH 1047 0
DWIDTH 16 0
BBX 9 9 3 -1
BITMAP
1C00
3F00
7F80
6D80
FF80
FF80
6D80
7F00
3E00
ENDCHAR
STARTCHAR 263C
ENCODING 9788
SWIDTH 916 0
DWIDTH 14 0
BBX 9 7 2 -2
BITMAP
4800
3600
2100
C180
2100
2200
1D00
ENDCHAR
STARTCHAR 2640
ENCODING 9792
SWIDTH 720 0
DWIDTH 11 0
BBX 5 7 3 0
BITMAP
70
88
88
70
20
F8
20
ENDCHAR
STARTCHAR 2642
ENCODING 9794
SWIDTH 720 0
DWIDTH 11 0
BBX 7 7 2 1
BITMAP
06
0A
70
88
88
50
20
ENDCHAR
STARTCHAR 2660
ENCODING 9824
SWIDTH 523 0
DWIDTH 8 0
BBX 8 8 0 0
BITMAP
18
1C
7E
7E
FF
76
10
3C
ENDCHAR
STARTCHAR 2663
ENCODING 9827
SWIDTH 654 0
DWIDTH 10 0
BBX 9 9 0 0
BITMAP
0C00
1E00
1E00
7F80
FF80
FF80
7B80
0C00
1E00
ENDCHAR
STARTCHAR 2665
ENCODING 9829
SWIDTH 589 0
DWIDTH 9 0
BBX 7 8 1 -1
BITMAP
76
7E
7E
3E
3E
1C
08
08
ENDCHAR
STARTCHAR 2666
ENCODING 9830
SWIDTH 523 0
DWIDTH 8 0
BBX 6 8 1 -1
BITMAP
18
38
7C
7C
7C
3C
18
10
ENDCHAR
STARTCHAR 266A
ENCODING 9834
SWIDTH 523 0
DWIDTH 8 0
BBX 4 7 2 0
BITMAP
10
20
20
20
20
60
40
ENDCHAR
STARTCHAR 266B
ENCODING 9835
SWIDTH 720 0
DWIDTH 11 0
BBX 7 8 2 -1
BITMAP
1E
22
3E
22
22
22
66
C4
ENDCHAR
STARTCHAR F001
ENCODING 61441
SWIDTH 523 0
DWIDTH 8 0
BBX 8 10 0 0
BITMAP
1E
32
30
7F
33
33
33
33
33
7B
ENDCHAR
STARTCHAR F002
ENCODING 61442
SWIDTH 523 0
DWIDTH 8 0
BBX 8 10 0 0
BITMAP
1F
33
33
7B
33
33
33
33
33
7F
ENDCHAR
STARTCHAR F005
ENCODING 61445
SWIDTH 327 0
DWIDTH 5 0
BBX 3 3 1 -3
BITMAP
40
20
C0
ENDCHAR
STARTCHAR FB01
ENCODING 64257
SWIDTH 523 0
DWIDTH 8 0
BBX 8 10 0 0
BITMAP
1E
32
30
7F
33
33
33
33
33
7B
ENDCHAR
STARTCHAR FB02
ENCODING 64258
SWIDTH 523 0
DWIDTH 8 0
BBX 8 10 0 0
BITMAP
1F
33
33
7B
33
33
33
33
33
7F
ENDCHAR
ENDFONT
